<svg version="1.1" id="Layer_1" xmlns="http://www.w3.org/2000/svg" xmlns:xlink="http://www.w3.org/1999/xlink" x="0px" y="0px"
	 width="100%" viewBox="0 0 607 450" enable-background="new 0 0 607 450" xml:space="preserve">
<path fill="#FFFFFF" opacity="1.000000" stroke="none" 
	d="
M608.000000,26.000004 
	C608.000000,167.625351 608.000000,309.250702 608.000000,450.938019 
	C405.766998,450.938019 203.533997,450.938019 1.000000,450.938019 
	C1.000000,309.641907 1.000000,168.283585 1.224190,26.468596 
	C1.448380,26.011913 1.896918,26.012363 2.128962,26.339924 
	C4.224187,27.133020 6.087241,28.005718 7.950567,28.006300 
	C205.673355,28.067947 403.396149,28.071106 601.118896,27.978596 
	C603.412964,27.977522 605.706299,26.688057 608.000000,26.000004 
M182.856049,445.391876 
	C182.856049,445.391876 182.668182,445.801514 181.773438,445.820282 
	C166.440903,445.834045 151.108353,445.853058 135.775818,445.860016 
	C120.688904,445.866852 105.601982,445.861511 90.515068,445.861511 
	C90.525490,446.373352 90.535919,446.885162 90.546349,447.397003 
	C233.239182,447.397003 375.932007,447.397003 518.624878,447.397003 
	C518.678162,446.906464 518.731445,446.415924 518.784729,445.925385 
	C516.673645,445.691376 514.562683,445.253937 512.451477,445.252838 
	C443.287354,445.217163 374.123199,445.224976 304.959076,445.215729 
	C302.795685,445.215454 300.632294,445.103088 298.751190,444.320190 
	C297.797241,442.620056 297.166168,440.590118 295.829224,439.281219 
	C291.693848,435.232635 284.148865,434.215607 284.452576,426.240540 
	C284.455353,426.167511 283.548431,426.059814 283.016449,425.159149 
	C283.388062,422.494171 283.759674,419.829163 284.875092,416.968781 
	C285.644745,414.180573 286.563080,411.423859 287.160767,408.599243 
	C292.259766,384.502106 298.742065,360.610748 298.127411,335.646667 
	C298.096497,334.389893 298.843353,333.132263 299.080353,331.847809 
	C301.715942,317.562775 305.685608,303.348602 306.490570,288.958405 
	C307.097168,278.113892 303.639740,267.042053 302.930298,256.048004 
	C313.961182,256.022552 324.992035,255.997116 336.473053,256.472229 
	C337.030090,257.300018 337.546295,258.159027 338.150574,258.950745 
	C343.727509,266.257385 353.847290,268.031464 361.330109,263.029816 
	C369.049438,257.870087 371.785614,247.323929 366.446228,239.803421 
	C363.903809,236.222366 359.455566,233.994370 356.068573,230.214066 
	C356.093384,218.268967 356.144928,206.323837 356.134338,194.378784 
	C356.126282,185.300110 351.928833,181.164902 342.716125,181.100662 
	C334.089783,181.040497 325.463165,181.022552 317.052795,180.331589 
	C322.963776,175.235550 325.288086,168.705063 325.214325,161.005905 
	C325.181183,157.541733 325.560699,153.979889 326.411621,150.629639 
	C327.132874,147.789810 326.173248,146.297653 324.202942,144.335587 
	C324.537018,142.620071 324.871094,140.904556 326.116028,139.168106 
	C331.774384,139.160446 337.432739,139.162781 343.091064,139.142883 
	C352.266449,139.110626 356.191620,135.294907 356.222107,126.164436 
	C356.275421,110.187904 356.255005,94.211052 356.231323,78.234375 
	C356.216522,68.264664 352.268372,64.271019 342.387634,64.241867 
	C330.738068,64.207504 319.088318,64.233757 307.438629,64.233757 
	C288.965576,64.233749 270.492493,64.224022 252.019440,64.237556 
	C241.600494,64.245186 237.773727,68.023109 237.759445,78.248192 
	C237.755020,81.410004 237.751862,84.571815 236.912125,87.828644 
	C229.139023,87.507385 223.254227,90.985252 218.721420,97.018463 
	C213.336548,104.185806 213.602386,112.007080 215.646759,119.725563 
	C213.426071,118.499886 211.205368,117.274208 209.067642,115.108055 
	C209.076370,102.792946 209.091599,90.477829 209.091751,78.162720 
	C209.091888,68.094727 205.102631,64.158264 194.832657,64.153839 
	C164.876755,64.140945 134.920868,64.139343 104.964973,64.154869 
	C94.806946,64.160133 90.298454,68.531914 90.233154,78.710701 
	C90.136002,93.854454 90.182823,108.999367 90.238388,124.143532 
	C90.245636,126.120575 90.563652,128.114899 90.917305,130.068726 
	C91.894043,135.464981 95.722054,139.032852 101.244118,139.039612 
	C130.197433,139.075012 159.150909,138.960785 188.618927,139.331039 
	C191.983292,146.074738 196.958923,150.347168 204.942093,150.259949 
	C212.840775,150.173660 218.006210,146.273651 221.063568,139.179550 
	C221.270370,138.699677 222.025513,138.456131 222.497437,138.857727 
	C221.826965,150.210983 216.249664,158.363770 205.935196,163.612625 
	C220.067688,165.857773 232.891541,156.231155 235.034149,142.019455 
	C235.782043,137.058701 236.300964,132.063431 236.957153,127.844818 
	C238.332092,132.651474 239.683395,137.478394 245.838745,138.171951 
	C245.838745,138.171951 245.851578,138.172394 245.988937,138.724609 
	C246.354080,138.778427 246.719208,138.832245 247.666397,139.220840 
	C254.597412,145.166580 261.784821,150.433060 271.924866,148.212799 
	C272.278992,149.504730 272.618744,150.744064 272.030304,152.058212 
	C267.706940,152.038162 263.349335,151.690292 259.074768,152.137009 
	C256.951843,152.358871 254.361053,153.543106 253.066345,155.160187 
	C250.023376,158.960770 246.814163,162.049667 242.296188,164.291229 
	C235.267441,167.778442 230.838898,173.704529 229.831818,181.808151 
	C229.094788,187.738739 228.051804,193.636612 227.480499,199.581284 
	C226.526764,209.505508 225.736053,219.448883 225.109558,229.398865 
	C224.931778,232.222305 224.443604,235.748322 229.032349,237.001541 
	C228.241745,250.195038 227.720184,263.412262 226.559647,276.573151 
	C225.863022,284.473114 229.533249,287.777374 237.447067,285.696686 
	C237.993759,289.970581 239.069626,294.254211 238.991058,298.516571 
	C238.722031,313.111816 242.901199,327.762543 238.525253,342.315979 
	C238.308975,343.035248 238.822128,343.941986 238.787857,344.752625 
	C238.249100,357.499878 237.676178,370.245697 236.281647,383.006531 
	C232.970734,383.847839 229.464355,384.261444 226.407303,385.658295 
	C223.688278,386.900665 221.467163,389.232697 218.450302,391.188660 
	C218.262329,391.136169 218.074371,391.083679 217.947876,390.477051 
	C217.556976,390.541321 217.166092,390.605621 216.705582,390.643951 
	C216.705582,390.643951 216.632858,390.628784 215.947876,390.737823 
	C211.692566,394.303192 207.275101,397.697601 203.254807,401.510742 
	C201.421478,403.249573 200.727890,403.071167 199.927368,400.297760 
	C199.540375,399.200317 199.153381,398.102875 198.961716,396.182373 
	C198.862762,386.879303 198.763824,377.576202 198.888107,367.497864 
	C198.888672,366.962128 198.889252,366.426392 199.109970,365.183014 
	C199.668488,362.793701 200.227020,360.404419 201.037170,357.355530 
	C201.009384,356.891357 200.981598,356.427185 201.379639,355.934082 
	C201.371262,355.720581 201.362885,355.507111 201.354477,355.293610 
	C201.246872,355.543427 201.139252,355.793243 200.560974,355.831177 
	C200.373947,355.554108 200.186920,355.277069 199.994843,354.408691 
	C199.499695,354.558990 199.004547,354.709320 198.216370,354.827454 
	C198.216370,354.827454 197.998871,355.026489 197.309631,355.112976 
	C188.473663,360.290619 181.313156,366.930389 177.665573,377.437164 
	C177.181931,378.295898 176.698303,379.154602 175.909454,380.716949 
	C168.158585,402.771301 172.751007,423.511475 182.724030,444.124146 
	C182.840591,444.401672 182.940887,444.684967 182.856049,445.391876 
M469.830170,231.827103 
	C474.802368,231.814896 479.774963,231.757416 484.746582,231.805740 
	C488.296631,231.840240 490.328674,230.218018 490.914673,226.700943 
	C491.621582,222.457794 492.442535,218.233368 493.126648,213.986755 
	C493.935211,208.967285 492.693726,207.495636 487.629730,207.003036 
	C481.369446,206.394089 475.118011,205.694031 468.861267,204.197449 
	C468.735657,196.049530 466.672852,194.049561 458.494751,193.988464 
	C450.731049,193.930450 442.967896,193.801620 434.968658,192.912537 
	C430.587402,192.615616 426.208466,192.241501 421.822235,192.108582 
	C421.195374,192.089600 420.533203,193.237732 418.969421,193.947006 
	C413.489410,193.964569 408.007782,193.904694 402.529877,194.021347 
	C396.980591,194.139496 394.317261,196.758636 394.258118,202.360184 
	C394.151245,212.489349 394.147858,222.621323 394.259552,232.750381 
	C394.321960,238.407547 396.920715,240.907089 402.572693,240.981964 
	C408.716125,241.063370 414.861603,240.991806 421.088318,241.787399 
	C421.603271,242.863968 421.900757,244.203323 422.735168,244.893875 
	C423.092346,245.189499 425.352234,244.214432 425.406982,243.679504 
	C425.752991,240.298492 428.150116,241.030899 430.174835,241.019348 
	C435.160370,240.990921 440.146210,241.009949 445.131927,241.009949 
	C457.231018,241.009918 469.330078,241.009918 480.827820,241.009918 
	C482.143280,242.610718 483.170074,243.860245 484.196899,245.109772 
	C485.613098,242.952026 487.029297,240.794281 488.967285,237.841492 
	C481.504852,237.841492 475.434174,237.841492 468.903412,237.104126 
	C468.898071,235.390884 468.892731,233.677628 469.830170,231.827103 
M209.127701,233.090836 
	C209.132019,219.943985 209.164261,206.797058 209.130310,193.650314 
	C209.109512,185.598969 204.878708,181.174820 196.933243,181.160187 
	C165.647110,181.102615 134.360748,181.109955 103.074585,181.156021 
	C95.615723,181.167007 90.784294,185.070908 90.609695,192.529800 
	C90.200981,209.990555 90.212196,227.471283 90.547699,244.934433 
	C90.686790,252.174652 95.381050,256.036499 102.625923,256.043213 
	C130.416748,256.068848 158.207642,256.015320 186.505692,256.446686 
	C190.863525,265.567230 198.962921,269.837189 207.296982,267.407623 
	C215.968567,264.879700 220.871887,257.572418 219.980820,248.551193 
	C219.282959,241.486176 214.255463,237.698380 209.127701,233.090836 
M503.106049,116.133835 
	C503.118835,103.140427 503.157745,90.146965 503.135223,77.153618 
	C503.120270,68.538666 498.974701,64.307983 490.340363,64.169830 
	C484.011749,64.068565 477.680206,64.149261 471.349976,64.149261 
	C447.028564,64.149269 422.707123,64.125999 398.385773,64.161446 
	C389.027344,64.175087 384.871613,68.276337 384.859375,77.406075 
	C384.836853,94.231133 384.810364,111.056412 384.877472,127.881241 
	C384.905304,134.861191 389.062622,139.058411 396.083191,139.065659 
	C425.400970,139.095932 454.718842,139.025970 484.451202,139.544205 
	C484.866058,140.447723 485.235931,141.375244 485.702850,142.251007 
	C489.605682,149.570465 497.393738,153.401489 504.805389,151.668625 
	C512.474670,149.875534 517.893311,143.428864 518.208191,135.723145 
	C518.554443,127.249031 513.903442,120.703346 505.714081,118.108513 
	C504.787445,117.814903 503.892517,117.421295 503.106049,116.133835 
z"/>
<path fill="#61B779" opacity="1.000000" stroke="none" 
	d="
M608.000000,25.531326 
	C605.706299,26.688057 603.412964,27.977522 601.118896,27.978596 
	C403.396149,28.071106 205.673355,28.067947 7.950567,28.006300 
	C6.087241,28.005718 4.224187,27.133020 2.168459,25.871838 
	C1.977928,19.103966 1.830886,13.125662 2.073964,7.163264 
	C2.145685,5.404041 3.319793,3.689761 4.454027,1.977371 
	C203.263809,1.999616 401.608276,2.002336 599.952759,1.957766 
	C601.968567,1.957313 603.984253,1.333044 606.000000,0.999999 
	C608.378662,0.397028 607.998779,2.072812 607.999084,3.425732 
	C608.000977,10.638035 608.000000,17.850338 608.000000,25.531326 
M575.509888,16.847027 
	C579.589722,16.211878 584.150208,18.263273 588.294373,15.051973 
	C583.911072,12.207370 566.921936,12.395729 563.932617,16.364182 
	C567.468994,16.525042 571.005310,16.685904 575.509888,16.847027 
M579.347961,7.410631 
	C574.257019,8.016672 568.822632,6.073108 563.317078,8.989837 
	C568.147217,11.887517 585.037903,11.489199 588.562561,7.945160 
	C585.228943,7.730058 582.759521,7.570714 579.347961,7.410631 
M53.270870,11.595540 
	C52.419060,16.628952 55.100685,20.104000 58.773914,18.470415 
	C60.170849,17.849163 61.688801,16.003609 61.866810,14.557860 
	C62.045612,13.105650 60.889172,10.385576 59.847382,10.128608 
	C57.986977,9.669719 55.772778,10.645171 53.270870,11.595540 
M34.964718,15.733279 
	C36.822643,16.683889 38.994030,18.713779 40.452812,18.290096 
	C41.998543,17.841162 43.954075,14.901931 43.727127,13.341782 
	C43.497578,11.763768 40.888321,9.505788 39.190273,9.384624 
	C35.824276,9.144445 34.410145,11.707552 34.964718,15.733279 
M16.511246,13.635142 
	C16.660128,16.744272 18.308422,19.087196 21.339516,18.619284 
	C23.064976,18.352926 25.329094,16.117216 25.718548,14.398502 
	C26.024904,13.046511 24.200758,10.364779 22.670235,9.625997 
	C19.793070,8.237193 17.649059,9.930831 16.511246,13.635142 
M585.825317,22.124893 
	C586.409058,21.667120 586.992859,21.209345 587.576599,20.751593 
	C586.523804,20.181841 585.484070,19.149376 584.416138,19.119375 
	C578.619202,18.956514 572.813477,18.963455 567.015808,19.111280 
	C565.953735,19.138359 564.915100,20.084904 563.865601,20.607025 
	C563.997070,21.125513 564.128479,21.644001 564.259949,22.162489 
	C571.157166,22.162489 578.054382,22.162489 585.825317,22.124893 
z"/>
<path fill="#D7EDDE" opacity="1.000000" stroke="none" 
	d="
M605.534973,0.999999 
	C603.984253,1.333044 601.968567,1.957313 599.952759,1.957766 
	C401.608276,2.002336 203.263809,1.999616 4.464893,1.738762 
	C4.010443,1.477669 4.000000,1.000000 4.000000,1.000000 
	C204.356644,1.000000 404.713287,1.000000 605.534973,0.999999 
z"/>
<path fill="#F0F8F3" opacity="1.000000" stroke="none" 
	d="
M3.500000,1.000000 
	C4.000000,1.000000 4.010443,1.477669 3.999577,1.716277 
	C3.319793,3.689761 2.145685,5.404041 2.073964,7.163264 
	C1.830886,13.125662 1.977928,19.103966 1.936415,25.544277 
	C1.896918,26.012363 1.448380,26.011913 1.224190,26.005957 
	C1.000000,18.333334 0.949757,10.665768 1.086890,3.001555 
	C1.099027,2.323177 2.333333,1.666667 3.500000,1.000000 
z"/>
<path fill="#313043" opacity="1.000000" stroke="none" 
	d="
M237.111099,382.991821 
	C237.676178,370.245697 238.249100,357.499878 238.787857,344.752625 
	C238.822128,343.941986 238.308975,343.035248 238.525253,342.315979 
	C242.901199,327.762543 238.722031,313.111816 238.991058,298.516571 
	C239.069626,294.254211 237.993759,289.970581 237.267181,284.878021 
	C237.057236,279.925842 236.669632,275.756531 237.078766,271.666962 
	C237.735199,265.105377 238.918945,258.596558 240.005157,251.726379 
	C241.885544,248.322845 243.640640,245.258362 245.837860,242.179382 
	C262.578644,241.363205 278.877319,240.561539 295.454224,239.979980 
	C297.818726,245.490509 299.904999,250.780945 301.991272,256.071381 
	C303.639740,267.042053 307.097168,278.113892 306.490570,288.958405 
	C305.685608,303.348602 301.715942,317.562775 299.080353,331.847809 
	C298.843353,333.132263 298.096497,334.389893 298.127411,335.646667 
	C298.742065,360.610748 292.259766,384.502106 287.160767,408.599243 
	C286.563080,411.423859 285.644745,414.180573 284.045471,417.012451 
	C280.147980,417.030518 277.080048,417.004944 273.621094,416.842743 
	C272.502258,415.199036 271.128815,413.684570 271.145782,412.185913 
	C271.332275,395.715454 271.692932,379.246277 272.143829,362.780548 
	C272.189941,361.098114 273.176025,359.453094 273.640594,357.767212 
	C274.093201,356.124756 274.562866,354.469635 274.795868,352.788330 
	C275.100403,350.590607 275.088684,348.349396 275.384399,346.149963 
	C275.623627,344.370850 276.483093,342.616669 276.439362,340.867096 
	C276.040222,324.901031 275.511810,308.938110 274.986877,292.975433 
	C274.954285,291.984222 274.633453,291.002533 274.249664,288.975769 
	C273.404572,290.463867 272.973083,290.933289 272.857269,291.470734 
	C270.898865,300.559448 268.118744,309.577484 267.274353,318.772278 
	C266.267303,329.737579 265.042236,340.423126 262.227112,351.205444 
	C257.240814,370.303802 254.040527,389.867493 250.018051,409.220917 
	C249.782440,410.354523 248.881317,411.349854 247.847473,412.306000 
	C243.943695,411.816681 240.482346,411.430908 236.637177,410.844635 
	C236.195694,407.362640 236.138000,404.081116 236.214325,400.418427 
	C236.602585,394.355438 236.856842,388.673615 237.111099,382.991821 
z"/>
<path fill="#8CF5A9" opacity="1.000000" stroke="none" 
	d="
M484.036682,138.992737 
	C454.718842,139.025970 425.400970,139.095932 396.083191,139.065659 
	C389.062622,139.058411 384.905304,134.861191 384.877472,127.881241 
	C384.810364,111.056412 384.836853,94.231133 384.859375,77.406075 
	C384.871613,68.276337 389.027344,64.175087 398.385773,64.161446 
	C422.707123,64.125999 447.028564,64.149269 471.349976,64.149261 
	C477.680206,64.149261 484.011749,64.068565 490.340363,64.169830 
	C498.974701,64.307983 503.120270,68.538666 503.135223,77.153618 
	C503.157745,90.146965 503.118835,103.140427 502.640442,116.613815 
	C491.930786,117.562187 482.647614,124.281235 484.036682,138.992737 
z"/>
<path fill="#8CF5A9" opacity="1.000000" stroke="none" 
	d="
M188.104340,138.898560 
	C159.150909,138.960785 130.197433,139.075012 101.244118,139.039612 
	C95.722054,139.032852 91.894043,135.464981 90.917305,130.068726 
	C90.563652,128.114899 90.245636,126.120575 90.238388,124.143532 
	C90.182823,108.999367 90.136002,93.854454 90.233154,78.710701 
	C90.298454,68.531914 94.806946,64.160133 104.964973,64.154869 
	C134.920868,64.139343 164.876755,64.140945 194.832657,64.153839 
	C205.102631,64.158264 209.091888,68.094727 209.091751,78.162720 
	C209.091599,90.477829 209.076370,102.792946 208.580887,115.577881 
	C199.978424,115.310570 193.049591,117.823746 189.695358,125.424156 
	C187.949844,129.379333 188.558884,134.373642 188.104340,138.898560 
z"/>
<path fill="#58E07F" opacity="1.000000" stroke="none" 
	d="
M185.998505,255.991364 
	C158.207642,256.015320 130.416748,256.068848 102.625923,256.043213 
	C95.381050,256.036499 90.686790,252.174652 90.547699,244.934433 
	C90.212196,227.471283 90.200981,209.990555 90.609695,192.529800 
	C90.784294,185.070908 95.615723,181.167007 103.074585,181.156021 
	C134.360748,181.109955 165.647110,181.102615 196.933243,181.160187 
	C204.878708,181.174820 209.109512,185.598969 209.130310,193.650314 
	C209.164261,206.797058 209.132019,219.943985 208.629761,233.568588 
	C203.621445,234.673126 198.666214,234.322083 194.693024,236.129639 
	C186.341812,239.928986 185.350357,247.795944 185.998505,255.991364 
z"/>
<path fill="#403E57" opacity="1.000000" stroke="none" 
	d="
M228.961304,236.117111 
	C224.443604,235.748322 224.931778,232.222305 225.109558,229.398865 
	C225.736053,219.448883 226.526764,209.505508 227.480499,199.581284 
	C228.051804,193.636612 229.094788,187.738739 229.831818,181.808151 
	C230.838898,173.704529 235.267441,167.778442 242.296188,164.291229 
	C246.814163,162.049667 250.023376,158.960770 253.066345,155.160187 
	C254.361053,153.543106 256.951843,152.358871 259.074768,152.137009 
	C263.349335,151.690292 267.706940,152.038162 272.774506,152.210785 
	C275.364105,153.867050 277.209473,155.370743 279.780365,157.465591 
	C279.930389,155.044373 279.998199,153.950348 280.372498,153.004578 
	C284.520111,157.258026 286.618622,163.634796 293.591461,163.718842 
	C297.361267,163.764297 301.138855,163.165726 305.112427,162.841385 
	C306.683105,154.847809 308.218231,147.035233 309.935028,138.945847 
	C311.359894,138.823761 312.603058,138.978470 314.046631,139.409546 
	C317.486053,141.473434 320.725037,143.261002 323.964050,145.048569 
	C326.173248,146.297653 327.132874,147.789810 326.411621,150.629639 
	C325.560699,153.979889 325.181183,157.541733 325.214325,161.005905 
	C325.288086,168.705063 322.963776,175.235550 316.642517,180.788773 
	C310.717438,187.464218 305.141022,193.629761 299.738373,199.944031 
	C298.620544,201.250473 297.429169,203.143585 297.502441,204.708694 
	C297.843719,211.998581 298.892731,219.259537 299.123474,226.548721 
	C299.244873,230.383957 300.351044,235.061081 294.805908,237.179367 
	C285.640839,237.297913 276.897949,237.759354 268.181244,237.459641 
	C260.315704,237.189194 252.478836,236.085815 244.462479,235.622620 
	C244.058563,239.475952 241.446579,239.008087 238.816681,238.689697 
	C235.356979,237.654633 232.159149,236.885880 228.961304,236.117111 
z"/>
<path fill="#62B77A" opacity="1.000000" stroke="none" 
	d="
M313.846252,139.133194 
	C312.603058,138.978470 311.359894,138.823761 309.483826,138.928101 
	C299.921692,139.122269 290.992462,139.057388 282.193909,138.664459 
	C283.522827,133.281586 284.721008,128.226730 286.281311,123.067627 
	C288.026001,121.430809 290.622803,119.843201 290.556335,118.376312 
	C290.378632,114.457214 289.528625,110.318314 284.748749,108.892830 
	C279.402283,107.298386 274.102905,105.540283 268.730774,104.040695 
	C266.848663,103.515297 264.638336,102.943008 262.881104,103.447754 
	C259.244629,104.492287 257.515289,102.577477 256.106598,99.985306 
	C252.120880,92.651031 245.747330,88.999878 237.748123,87.733627 
	C237.751862,84.571815 237.755020,81.410004 237.759445,78.248192 
	C237.773727,68.023109 241.600494,64.245186 252.019440,64.237556 
	C270.492493,64.224022 288.965576,64.233749 307.438629,64.233757 
	C319.088318,64.233757 330.738068,64.207504 342.387634,64.241867 
	C352.268372,64.271019 356.216522,68.264664 356.231323,78.234375 
	C356.255005,94.211052 356.275421,110.187904 356.222107,126.164436 
	C356.191620,135.294907 352.266449,139.110626 343.091064,139.142883 
	C337.432739,139.162781 331.774384,139.160446 325.641968,138.763077 
	C325.448730,136.560501 325.579132,134.723572 326.037750,132.972595 
	C327.595917,127.023338 325.770477,119.974182 332.396149,115.567352 
	C333.676666,114.715668 333.928802,110.123428 332.829834,108.470070 
	C331.586975,106.600121 328.184998,105.083344 325.910919,105.309967 
	C323.957520,105.504631 321.200562,108.078651 320.647552,110.105034 
	C318.032715,119.686188 316.052612,129.440567 313.846252,139.133194 
z"/>
<path fill="#8BF4A9" opacity="1.000000" stroke="none" 
	d="
M295.239471,237.190826 
	C300.351044,235.061081 299.244873,230.383957 299.123474,226.548721 
	C298.892731,219.259537 297.843719,211.998581 297.502441,204.708694 
	C297.429169,203.143585 298.620544,201.250473 299.738373,199.944031 
	C305.141022,193.629761 310.717438,187.464218 316.534485,181.115997 
	C325.463165,181.022552 334.089783,181.040497 342.716125,181.100662 
	C351.928833,181.164902 356.126282,185.300110 356.134338,194.378784 
	C356.144928,206.323837 356.093384,218.268967 355.547119,230.666916 
	C339.885345,230.907135 332.037933,241.170013 336.022919,255.971680 
	C324.992035,255.997116 313.961182,256.022552 302.460785,256.059692 
	C299.904999,250.780945 297.818726,245.490509 295.454651,239.658875 
	C295.197723,238.475388 295.218597,237.833115 295.239471,237.190826 
z"/>
<path fill="#59DF7F" opacity="1.000000" stroke="none" 
	d="
M236.696381,382.999176 
	C236.856842,388.673615 236.602585,394.355438 235.904175,400.581970 
	C231.928345,406.417450 228.396652,411.708221 224.509216,417.007812 
	C221.696899,417.455322 221.334351,418.473694 223.232086,420.509033 
	C220.175552,429.249420 217.177414,437.614655 213.699524,445.989258 
	C205.810638,445.718933 198.401505,445.439270 190.995346,444.844055 
	C191.000824,444.112396 191.003296,443.696289 191.394089,443.208557 
	C193.672424,442.686584 195.562454,442.236237 197.452484,441.785919 
	C197.340820,441.369659 197.229141,440.953400 197.117477,440.537140 
	C194.409576,441.355988 191.701675,442.174835 188.633911,442.978821 
	C187.553818,442.986145 186.833618,443.008301 185.890381,443.098877 
	C185.379196,443.314148 185.171326,443.536163 184.788147,443.904175 
	C184.356079,443.986450 184.179626,443.997864 183.975647,443.730621 
	C183.503510,443.531433 183.058914,443.610931 182.614319,443.690430 
	C172.751007,423.511475 168.158585,402.771301 176.396500,380.359528 
	C177.307327,379.022339 177.731110,378.042542 178.154877,377.062744 
	C181.313156,366.930389 188.473663,360.290619 197.660400,355.427612 
	C198.935974,356.499847 199.860748,357.257477 200.785522,358.015106 
	C200.227020,360.404419 199.668488,362.793701 198.663406,365.605347 
	C196.854309,365.719757 195.491760,365.411804 194.348907,364.938110 
	C194.591431,364.367737 194.614273,363.963104 194.637115,363.558502 
	C194.345810,363.970215 194.054520,364.381927 193.470428,365.002869 
	C192.848541,366.024414 192.519455,366.836761 192.122681,367.816162 
	C194.555191,367.986084 196.610031,368.129608 198.664886,368.273132 
	C198.763824,377.576202 198.862762,386.879303 198.536682,396.665588 
	C197.123337,399.157196 196.135010,401.165619 194.614548,404.255402 
	C197.213699,402.649475 198.544189,401.827393 199.874695,401.005310 
	C200.727890,403.071167 201.421478,403.249573 203.254807,401.510742 
	C207.275101,397.697601 211.692566,394.303192 216.406174,391.001648 
	C217.264420,391.703674 217.664352,392.141846 218.064301,392.580017 
	C218.384979,392.081268 218.705643,391.582550 219.026306,391.083801 
	C221.467163,389.232697 223.688278,386.900665 226.407303,385.658295 
	C229.464355,384.261444 232.970734,383.847839 236.696381,382.999176 
M190.600647,372.786804 
	C190.606277,372.351379 190.611908,371.915985 190.617554,371.480560 
	C190.358017,371.942841 190.098480,372.405121 189.357712,373.195374 
	C189.357071,373.632477 189.356430,374.069580 189.355804,374.506683 
	C189.609421,374.040375 189.863037,373.574066 190.600647,372.786804 
M187.546249,381.550720 
	C187.732605,380.394928 187.918961,379.239136 188.607269,377.778381 
	C188.655594,377.299316 188.703934,376.820251 188.752274,376.341187 
	C188.578156,376.318207 188.404053,376.295227 188.229935,376.272247 
	C188.124207,376.821228 188.018478,377.370239 187.339584,378.386414 
	C187.237427,379.600067 187.135269,380.813751 186.721146,382.067657 
	C186.806503,382.035004 186.891846,382.002350 187.546249,381.550720 
M187.105194,406.292999 
	C187.194489,406.340485 187.283783,406.387970 187.373093,406.435425 
	C187.254593,406.285675 187.136108,406.135956 187.005646,405.369049 
	C186.786819,404.821991 186.568008,404.274902 186.349182,403.727844 
	C186.011337,404.037079 185.673492,404.346313 185.335648,404.655548 
	C185.885803,405.109680 186.435974,405.563843 187.105194,406.292999 
M186.061905,387.349243 
	C186.201218,386.405396 186.340530,385.461548 186.581833,383.826660 
	C184.937790,385.279449 183.976746,386.128693 182.943207,386.300842 
	C181.748886,384.874146 180.554565,383.447479 179.360260,382.020782 
	C178.960709,382.469635 178.561172,382.918488 178.161636,383.367310 
	C179.770355,384.583527 181.379089,385.799713 183.207092,387.457977 
	C183.406174,387.734650 183.666626,387.929169 184.008453,388.726135 
	C184.377777,389.322968 184.747101,389.919769 185.116440,390.516602 
	C185.411362,389.678955 185.706299,388.841309 186.061905,387.349243 
M193.735641,413.567841 
	C192.356461,411.840179 190.977295,410.112518 189.598129,408.384857 
	C189.156464,408.616394 188.714798,408.847961 188.273132,409.079498 
	C188.948380,410.320068 189.390594,411.808807 190.368500,412.726959 
	C191.236694,413.542145 192.699463,413.724030 193.735641,413.567841 
M184.985138,395.927185 
	C185.103348,396.944000 185.221542,397.960785 185.488235,400.254974 
	C185.488235,396.892029 185.488235,394.874908 185.488235,392.857788 
	C185.190720,392.907104 184.893204,392.956421 184.595673,393.005737 
	C184.705933,393.748474 184.816177,394.491211 184.985138,395.927185 
M214.114700,407.371063 
	C213.286346,408.400116 212.457993,409.429169 211.629623,410.458191 
	C211.922379,410.685211 212.215118,410.912231 212.507858,411.139252 
	C213.196320,410.014526 213.884781,408.889801 214.114700,407.371063 
M221.369278,400.186768 
	C222.095795,399.978363 222.822311,399.769989 223.548828,399.561584 
	C223.408829,399.170166 223.268845,398.778778 223.128845,398.387360 
	C222.532059,398.784576 221.935272,399.181793 221.369278,400.186768 
M208.158356,418.897156 
	C208.635330,418.769501 209.112320,418.641846 209.589310,418.514221 
	C209.403534,418.147186 209.217743,417.780121 209.031937,417.413086 
	C208.723679,417.726135 208.415421,418.039215 208.158356,418.897156 
M196.385712,360.205048 
	C196.783966,360.209229 197.182220,360.213440 197.580475,360.217651 
	C197.582016,360.052368 197.594589,359.743439 197.583511,359.742584 
	C197.187119,359.712097 196.788513,359.710449 196.385712,360.205048 
M209.569778,424.296265 
	C209.296432,424.009857 209.023087,423.723450 208.749725,423.437042 
	C208.631195,423.550385 208.403336,423.756073 208.409851,423.763794 
	C208.665009,424.065887 208.941544,424.349915 209.569778,424.296265 
M229.590240,393.604553 
	C229.611801,393.953613 229.633362,394.302704 229.654922,394.651764 
	C229.904953,394.580048 230.154968,394.508362 230.404999,394.436646 
	C230.272995,394.194946 230.140976,393.953217 229.590240,393.604553 
M217.894836,399.708527 
	C218.167862,399.452454 218.446106,399.201233 218.700455,398.927765 
	C218.714966,398.912201 218.534439,398.715179 218.444702,398.602631 
	C218.158691,398.870728 217.872665,399.138824 217.894836,399.708527 
M226.626816,396.659546 
	C226.882477,396.584381 227.138138,396.509216 227.393814,396.434052 
	C227.116364,396.150360 226.838913,395.866669 226.561478,395.582977 
	C226.480103,395.836700 226.398712,396.090393 226.626816,396.659546 
M232.921341,392.479645 
	C232.776169,392.235657 232.631012,391.991638 232.485825,391.747650 
	C232.351318,391.999207 232.055481,392.314850 232.123444,392.486053 
	C232.207169,392.696960 232.593964,392.787506 232.921341,392.479645 
M203.454895,439.515198 
	C203.199356,439.394226 202.952301,439.239716 202.683380,439.171631 
	C202.596695,439.149719 202.452408,439.355408 202.334473,439.456940 
	C202.591354,439.579346 202.848236,439.701721 203.454895,439.515198 
M200.636398,440.531647 
	C200.265686,440.458038 199.894989,440.384430 199.524292,440.310852 
	C199.758362,440.499329 199.992447,440.687805 200.636398,440.531647 
M212.371704,422.524902 
	C212.159653,422.470428 211.947601,422.415955 211.735550,422.361511 
	C211.871811,422.495361 212.008072,422.629211 212.371704,422.524902 
M218.525436,401.623260 
	C218.470383,401.838135 218.415329,402.052979 218.360260,402.267853 
	C218.495926,402.129639 218.631577,401.991425 218.525436,401.623260 
M191.256851,369.473633 
	C191.419403,369.486908 191.581970,369.500153 191.744522,369.513428 
	C191.671417,369.407379 191.598328,369.301361 191.256851,369.473633 
z"/>
<path fill="#313043" opacity="1.000000" stroke="none" 
	d="
M237.330124,87.781136 
	C245.747330,88.999878 252.120880,92.651031 256.106598,99.985306 
	C257.515289,102.577477 259.244629,104.492287 262.881104,103.447754 
	C264.638336,102.943008 266.848663,103.515297 268.730774,104.040695 
	C274.102905,105.540283 279.402283,107.298386 284.748749,108.892830 
	C289.528625,110.318314 290.378632,114.457214 290.556335,118.376312 
	C290.622803,119.843201 288.026001,121.430809 286.025940,122.868881 
	C284.876099,122.068611 284.343842,121.362839 283.732758,120.552521 
	C282.810730,123.896675 281.865906,126.808968 281.222412,129.786392 
	C280.401031,133.586914 279.823029,137.440048 279.024780,141.690460 
	C279.294983,145.692368 279.680481,149.274338 280.065979,152.856308 
	C279.998199,153.950348 279.930389,155.044373 279.780365,157.465591 
	C277.209473,155.370743 275.364105,153.867050 273.238586,152.173386 
	C272.618744,150.744064 272.278992,149.504730 271.924866,148.212799 
	C261.784821,150.433060 254.597412,145.166580 247.253448,138.806000 
	C246.510864,138.318222 246.181229,138.245316 245.851578,138.172394 
	C245.851578,138.172394 245.838745,138.171951 245.898193,137.803009 
	C240.408127,129.787018 242.954681,122.240005 246.560364,114.928307 
	C248.041046,111.925758 248.483154,109.511940 246.214554,106.930374 
	C239.406097,110.234848 236.088028,117.542496 236.924454,127.083916 
	C236.300964,132.063431 235.782043,137.058701 235.034149,142.019455 
	C232.891541,156.231155 220.067688,165.857773 205.935196,163.612625 
	C216.249664,158.363770 221.826965,150.210983 222.660980,138.129578 
	C220.640549,131.620346 218.456558,125.839249 216.272583,120.058151 
	C213.602386,112.007080 213.336548,104.185806 218.721420,97.018463 
	C223.254227,90.985252 229.139023,87.507385 237.330124,87.781136 
z"/>
<path fill="#59E07F" opacity="1.000000" stroke="none" 
	d="
M421.006165,240.986938 
	C414.861603,240.991806 408.716125,241.063370 402.572693,240.981964 
	C396.920715,240.907089 394.321960,238.407547 394.259552,232.750381 
	C394.147858,222.621323 394.151245,212.489349 394.258118,202.360184 
	C394.317261,196.758636 396.980591,194.139496 402.529877,194.021347 
	C408.007782,193.904694 413.489410,193.964569 419.706879,194.211578 
	C423.165283,194.816452 425.886230,195.156738 428.981781,195.543884 
	C428.981781,203.831635 429.224548,211.802032 428.897400,219.748947 
	C428.674957,225.153503 429.553314,229.557953 434.754517,232.367310 
	C436.501678,233.311035 437.835083,235.020767 440.075806,237.021759 
	C433.921661,237.021759 428.799622,236.992615 423.678192,237.033539 
	C420.956696,237.055283 419.375854,237.966461 421.006165,240.986938 
z"/>
<path fill="#A1F5B9" opacity="1.000000" stroke="none" 
	d="
M190.992355,445.159637 
	C198.401505,445.439270 205.810638,445.718933 214.151520,445.947998 
	C221.337372,445.878937 227.591461,445.860504 234.291550,445.874023 
	C243.672348,445.850189 252.607147,445.794434 262.029236,445.775604 
	C265.127777,445.801117 267.739044,445.789734 270.760864,445.794189 
	C274.283539,445.803375 277.398102,445.873657 280.507172,445.773651 
	C286.496033,445.580994 292.481842,445.291992 298.468903,445.042969 
	C300.632294,445.103088 302.795685,445.215454 304.959076,445.215729 
	C374.123199,445.224976 443.287354,445.217163 512.451477,445.252838 
	C514.562683,445.253937 516.673645,445.691376 518.784729,445.925385 
	C518.731445,446.415924 518.678162,446.906464 518.624878,447.397003 
	C375.932007,447.397003 233.239182,447.397003 90.546349,447.397003 
	C90.535919,446.885162 90.525490,446.373352 90.515068,445.861511 
	C105.601982,445.861511 120.688904,445.866852 135.775818,445.860016 
	C151.108353,445.853058 166.440903,445.834045 182.512604,445.791748 
	C183.495300,445.482086 183.738815,445.200958 183.998230,444.945068 
	C184.014114,444.970306 183.954544,444.973236 184.264679,444.996613 
	C184.780334,445.047333 184.985870,445.074677 185.297241,445.341492 
	C185.940918,445.377197 186.478745,445.173462 187.010788,444.988281 
	C187.005005,445.006805 186.966537,445.012085 187.214523,444.953339 
	C187.615982,444.612823 187.769470,444.331085 188.139389,444.023987 
	C188.355820,443.998627 188.790222,443.963684 188.955170,444.260284 
	C189.744202,444.757812 190.368286,444.958710 190.992355,445.159637 
z"/>
<path fill="#66BD7E" opacity="1.000000" stroke="none" 
	d="
M421.047241,241.387177 
	C419.375854,237.966461 420.956696,237.055283 423.678192,237.033539 
	C428.799622,236.992615 433.921661,237.021759 440.075806,237.021759 
	C437.835083,235.020767 436.501678,233.311035 434.754517,232.367310 
	C429.553314,229.557953 428.674957,225.153503 428.897400,219.748947 
	C429.224548,211.802032 428.981781,203.831635 428.981781,195.543884 
	C425.886230,195.156738 423.165283,194.816452 420.165833,194.160919 
	C420.533203,193.237732 421.195374,192.089600 421.822235,192.108582 
	C426.208466,192.241501 430.587402,192.615616 434.849915,193.631897 
	C430.857971,195.941833 431.737457,198.751038 432.752167,202.099136 
	C444.837341,203.081131 456.850037,204.057220 468.862732,205.033340 
	C475.118011,205.694031 481.369446,206.394089 487.629730,207.003036 
	C492.693726,207.495636 493.935211,208.967285 493.126648,213.986755 
	C492.442535,218.233368 491.621582,222.457794 490.914673,226.700943 
	C490.328674,230.218018 488.296631,231.840240 484.746582,231.805740 
	C479.774963,231.757416 474.802368,231.814896 468.898682,231.902649 
	C458.926392,231.978210 449.885590,231.978210 440.844757,231.978210 
	C440.679810,232.651016 440.514862,233.323822 440.349915,233.996628 
	C443.234192,235.001373 446.060333,236.602234 449.014496,236.890335 
	C455.764221,237.548645 462.576599,237.564621 469.363525,237.841492 
	C475.434174,237.841492 481.504852,237.841492 488.967285,237.841492 
	C487.029297,240.794281 485.613098,242.952026 484.196899,245.109772 
	C483.170074,243.860245 482.143280,242.610718 480.827820,241.009918 
	C469.330078,241.009918 457.231018,241.009918 445.131927,241.009949 
	C440.146210,241.009949 435.160370,240.990921 430.174835,241.019348 
	C428.150116,241.030899 425.752991,240.298492 425.406982,243.679504 
	C425.352234,244.214432 423.092346,245.189499 422.735168,244.893875 
	C421.900757,244.203323 421.603271,242.863968 421.047241,241.387177 
M469.992126,228.893814 
	C471.759857,228.893814 473.527588,228.893814 475.591736,228.893814 
	C475.591736,222.061081 475.591736,215.728012 475.591736,209.149994 
	C473.398254,208.804962 471.302551,208.475311 468.275665,208.066574 
	C462.684509,207.710297 457.091461,207.381302 451.503113,206.985367 
	C448.985535,206.807007 447.892944,207.777573 447.958191,210.400070 
	C448.081726,215.367020 448.101196,220.342651 447.948364,225.308044 
	C447.861298,228.135803 448.970306,229.103638 451.732025,229.027512 
	C457.526215,228.867798 463.326569,228.930923 469.992126,228.893814 
M431.983459,212.581482 
	C431.990936,216.566620 431.615631,220.598770 432.097870,224.525589 
	C432.776825,230.054291 437.407715,228.670670 441.040863,229.023071 
	C444.643494,229.372513 445.122314,227.452209 445.030975,224.510666 
	C444.876465,219.533920 445.069733,214.546494 444.922974,209.569260 
	C444.889557,208.435944 444.230682,206.473389 443.577545,206.346695 
	C439.959808,205.644821 436.254944,205.392319 431.983398,204.919922 
	C431.983398,207.707062 431.983398,209.660797 431.983459,212.581482 
M478.777557,213.752930 
	C478.777557,218.663025 478.777557,223.573120 478.777557,228.372330 
	C487.304749,229.400482 487.312195,229.401932 488.700867,222.281082 
	C488.923218,221.140915 488.997894,219.972000 489.219452,218.831619 
	C490.854919,210.413040 490.839478,210.578995 482.416504,209.469269 
	C479.302979,209.059052 478.495056,210.084076 478.777557,213.752930 
z"/>
<path fill="#8CF5A9" opacity="1.000000" stroke="none" 
	d="
M186.252106,256.219025 
	C185.350357,247.795944 186.341812,239.928986 194.693024,236.129639 
	C198.666214,234.322083 203.621445,234.673126 208.594299,234.038071 
	C214.255463,237.698380 219.282959,241.486176 219.980820,248.551193 
	C220.871887,257.572418 215.968567,264.879700 207.296982,267.407623 
	C198.962921,269.837189 190.863525,265.567230 186.252106,256.219025 
z"/>
<path fill="#64B97C" opacity="1.000000" stroke="none" 
	d="
M336.247986,256.221954 
	C332.037933,241.170013 339.885345,230.907135 355.448151,231.136612 
	C359.455566,233.994370 363.903809,236.222366 366.446228,239.803421 
	C371.785614,247.323929 369.049438,257.870087 361.330109,263.029816 
	C353.847290,268.031464 343.727509,266.257385 338.150574,258.950745 
	C337.546295,258.159027 337.030090,257.300018 336.247986,256.221954 
M357.352814,247.017044 
	C350.862488,248.509216 354.732513,241.607285 351.118103,239.567123 
	C350.595978,242.255325 350.162933,244.484863 349.762085,246.548599 
	C347.401825,247.019333 345.315918,247.435333 343.230011,247.851349 
	C343.237152,248.350464 343.244293,248.849579 343.251434,249.348679 
	C345.503937,249.718750 347.756439,250.088821 349.676239,250.404221 
	C350.300903,252.882950 350.823853,254.958038 351.346802,257.033112 
	C351.801605,256.938934 352.256439,256.844727 352.711243,256.750519 
	C353.029419,254.566483 353.347565,252.382446 353.672516,250.151840 
	C355.450287,250.065781 357.055939,250.330902 358.391174,249.848190 
	C360.773407,248.986969 360.760040,247.830856 357.352814,247.017044 
z"/>
<path fill="#64B97C" opacity="1.000000" stroke="none" 
	d="
M484.243958,139.268463 
	C482.647614,124.281235 491.930786,117.562187 502.578857,117.083931 
	C503.892517,117.421295 504.787445,117.814903 505.714081,118.108513 
	C513.903442,120.703346 518.554443,127.249031 518.208191,135.723145 
	C517.893311,143.428864 512.474670,149.875534 504.805389,151.668625 
	C497.393738,153.401489 489.605682,149.570465 485.702850,142.251007 
	C485.235931,141.375244 484.866058,140.447723 484.243958,139.268463 
M493.868347,135.876678 
	C495.778290,136.052536 497.688232,136.228394 499.444336,136.390091 
	C499.816437,138.936142 500.119995,141.013214 500.423553,143.090286 
	C500.980499,143.096283 501.537415,143.102280 502.094330,143.108276 
	C502.462311,140.861664 502.830292,138.615051 503.184937,136.449905 
	C505.537659,136.082001 507.621490,135.756149 509.705322,135.430313 
	C509.703918,134.920456 509.702515,134.410583 509.701111,133.900726 
	C507.454254,133.434631 505.207367,132.968521 503.335266,132.580154 
	C502.716583,130.154434 502.200714,128.131897 501.684875,126.109375 
	C501.222382,126.160278 500.759857,126.211182 500.297363,126.262093 
	C500.004944,128.401489 499.712494,130.540878 499.593964,131.407944 
	C496.886932,133.079605 495.016571,134.234589 493.868347,135.876678 
z"/>
<path fill="#64B87B" opacity="1.000000" stroke="none" 
	d="
M215.959671,119.891861 
	C218.456558,125.839249 220.640549,131.620346 222.675079,137.752045 
	C222.025513,138.456131 221.270370,138.699677 221.063568,139.179550 
	C218.006210,146.273651 212.840775,150.173660 204.942093,150.259949 
	C196.958923,150.347168 191.983292,146.074738 188.361633,139.114807 
	C188.558884,134.373642 187.949844,129.379333 189.695358,125.424156 
	C193.049591,117.823746 199.978424,115.310570 208.539398,116.048119 
	C211.205368,117.274208 213.426071,118.499886 215.959671,119.891861 
M210.490662,131.814941 
	C203.953293,133.390228 207.456131,126.670326 204.199783,124.162865 
	C203.568085,126.997093 203.077957,129.196060 202.599594,131.342331 
	C200.384476,131.745926 198.300812,132.125565 196.217163,132.505203 
	C196.230743,132.991623 196.244324,133.478043 196.257904,133.964462 
	C198.390488,134.382904 200.523087,134.801346 202.543015,135.197693 
	C203.117493,137.487900 203.653427,139.624496 204.189377,141.761093 
	C204.651764,141.689575 205.114151,141.618042 205.576538,141.546524 
	C205.905670,139.383667 206.234802,137.220825 206.581451,134.942856 
	C208.286880,134.846237 209.835159,135.007355 211.234375,134.624130 
	C213.661575,133.959351 213.949570,132.885605 210.490662,131.814941 
z"/>
<path fill="#9E646C" opacity="1.000000" stroke="none" 
	d="
M228.996826,236.559326 
	C232.159149,236.885880 235.356979,237.654633 238.804352,239.126968 
	C238.831802,241.899307 238.329422,243.986862 238.466690,246.031494 
	C238.603241,248.065277 239.382431,250.055908 239.879837,252.065445 
	C238.918945,258.596558 237.735199,265.105377 237.078766,271.666962 
	C236.669632,275.756531 237.057236,279.925842 237.055023,284.527283 
	C229.533249,287.777374 225.863022,284.473114 226.559647,276.573151 
	C227.720184,263.412262 228.241745,250.195038 228.996826,236.559326 
z"/>
<path fill="#9C636B" opacity="1.000000" stroke="none" 
	d="
M314.046631,139.409546 
	C316.052612,129.440567 318.032715,119.686188 320.647552,110.105034 
	C321.200562,108.078651 323.957520,105.504631 325.910919,105.309967 
	C328.184998,105.083344 331.586975,106.600121 332.829834,108.470070 
	C333.928802,110.123428 333.676666,114.715668 332.396149,115.567352 
	C325.770477,119.974182 327.595917,127.023338 326.037750,132.972595 
	C325.579132,134.723572 325.448730,136.560501 325.186523,138.773544 
	C324.871094,140.904556 324.537018,142.620071 324.083496,144.692078 
	C320.725037,143.261002 317.486053,141.473434 314.046631,139.409546 
z"/>
<path fill="#353546" opacity="1.000000" stroke="none" 
	d="
M298.610046,444.681580 
	C292.481842,445.291992 286.496033,445.580994 280.507172,445.773651 
	C277.398102,445.873657 274.283539,445.803375 270.807068,445.405151 
	C270.902985,439.971130 271.262451,434.929108 271.902313,429.922913 
	C272.043274,428.820007 273.179047,427.844269 274.276917,426.835144 
	C277.486816,426.562958 280.276520,426.265625 283.066223,425.968292 
	C283.548431,426.059814 284.455353,426.167511 284.452576,426.240540 
	C284.148865,434.215607 291.693848,435.232635 295.829224,439.281219 
	C297.166168,440.590118 297.797241,442.620056 298.610046,444.681580 
z"/>
<path fill="#59E07F" opacity="1.000000" stroke="none" 
	d="
M468.862000,204.615387 
	C456.850037,204.057220 444.837341,203.081131 432.752167,202.099136 
	C431.737457,198.751038 430.857971,195.941833 434.967834,194.027588 
	C442.967896,193.801620 450.731049,193.930450 458.494751,193.988464 
	C466.672852,194.049561 468.735657,196.049530 468.862000,204.615387 
z"/>
<path fill="#60B077" opacity="1.000000" stroke="none" 
	d="
M236.940796,127.464371 
	C236.088028,117.542496 239.406097,110.234848 246.214554,106.930374 
	C248.483154,109.511940 248.041046,111.925758 246.560364,114.928307 
	C242.954681,122.240005 240.408127,129.787018 245.894028,137.813629 
	C239.683395,137.478394 238.332092,132.651474 236.940796,127.464371 
z"/>
<path fill="#64DF87" opacity="1.000000" stroke="none" 
	d="
M469.133484,237.472809 
	C462.576599,237.564621 455.764221,237.548645 449.014496,236.890335 
	C446.060333,236.602234 443.234192,235.001373 440.349915,233.996628 
	C440.514862,233.323822 440.679810,232.651016 440.844757,231.978210 
	C449.885590,231.978210 458.926392,231.978210 468.427307,231.971298 
	C468.892731,233.677628 468.898071,235.390884 469.133484,237.472809 
z"/>
<path fill="#9C636B" opacity="1.000000" stroke="none" 
	d="
M283.041321,425.563721 
	C280.276520,426.265625 277.486816,426.562958 274.316711,426.396118 
	C273.961578,422.947754 273.986877,419.963531 274.012146,416.979340 
	C277.080048,417.004944 280.147980,417.030518 283.673584,417.110168 
	C283.759674,419.829163 283.388062,422.494171 283.041321,425.563721 
z"/>
<path fill="#5CE181" opacity="1.000000" stroke="none" 
	d="
M199.901031,400.651550 
	C198.544189,401.827393 197.213699,402.649475 194.614548,404.255402 
	C196.135010,401.165619 197.123337,399.157196 198.439026,397.077087 
	C199.153381,398.102875 199.540375,399.200317 199.901031,400.651550 
z"/>
<path fill="#B5F1C6" opacity="1.000000" stroke="none" 
	d="
M194.129227,365.103851 
	C195.491760,365.411804 196.854309,365.719757 198.553345,365.959167 
	C198.889252,366.426392 198.888672,366.962128 198.776489,367.885498 
	C196.610031,368.129608 194.555191,367.986084 192.122681,367.816162 
	C192.519455,366.836761 192.848541,366.024414 193.561768,365.080627 
	C193.945892,364.949158 194.129227,365.103851 194.129227,365.103851 
z"/>
<path fill="#64DF87" opacity="1.000000" stroke="none" 
	d="
M200.911346,357.685303 
	C199.860748,357.257477 198.935974,356.499847 198.005035,355.384338 
	C197.998871,355.026489 198.216370,354.827454 198.736084,354.883301 
	C199.503860,354.959442 199.751892,354.979706 199.999908,355.000000 
	C200.186920,355.277069 200.373947,355.554108 200.778107,355.915894 
	C200.995255,356.000610 200.953812,355.963013 200.953812,355.963013 
	C200.981598,356.427185 201.009384,356.891357 200.911346,357.685303 
z"/>
<path fill="#60E285" opacity="1.000000" stroke="none" 
	d="
M177.910233,377.249939 
	C177.731110,378.042542 177.307327,379.022339 176.549103,380.007721 
	C176.698303,379.154602 177.181931,378.295898 177.910233,377.249939 
z"/>
<path fill="#5CE181" opacity="1.000000" stroke="none" 
	d="
M218.738312,391.136230 
	C218.705643,391.582550 218.384979,392.081268 218.064301,392.580017 
	C217.664352,392.141846 217.264420,391.703674 216.748657,390.947144 
	C216.632858,390.628784 216.705582,390.643951 217.010406,390.775513 
	C217.505630,390.948456 217.696030,390.989838 217.886414,391.031219 
	C218.074371,391.083679 218.262329,391.136169 218.738312,391.136230 
z"/>
<path fill="#59E080" opacity="1.000000" stroke="none" 
	d="
M182.669174,443.907288 
	C183.058914,443.610931 183.503510,443.531433 183.972702,443.971924 
	C183.997299,444.491913 183.954544,444.973236 183.954544,444.973236 
	C183.954544,444.973236 184.014114,444.970306 183.758148,444.947571 
	C183.502167,444.924866 183.024918,444.974060 183.024918,444.974060 
	C182.940887,444.684967 182.840591,444.401672 182.669174,443.907288 
z"/>
<path fill="#64DF87" opacity="1.000000" stroke="none" 
	d="
M201.013458,356.021851 
	C201.139252,355.793243 201.246872,355.543427 201.354492,355.293610 
	C201.362885,355.507111 201.371262,355.720581 201.166718,355.948547 
	C200.953812,355.963013 200.995255,356.000610 201.013458,356.021851 
z"/>
<path fill="#60E285" opacity="1.000000" stroke="none" 
	d="
M199.997375,354.704346 
	C199.751892,354.979706 199.503860,354.959442 198.882614,354.899414 
	C199.004547,354.709320 199.499695,354.558990 199.997375,354.704346 
z"/>
<path fill="#59DF7F" opacity="1.000000" stroke="none" 
	d="
M217.917145,390.754150 
	C217.696030,390.989838 217.505630,390.948456 217.045212,390.788452 
	C217.166092,390.605621 217.556976,390.541321 217.917145,390.754150 
z"/>
<path fill="#B5F1C6" opacity="1.000000" stroke="none" 
	d="
M182.940491,445.182983 
	C183.024918,444.974060 183.502167,444.924866 183.742249,444.922363 
	C183.738815,445.200958 183.495300,445.482086 182.959991,445.782349 
	C182.668182,445.801514 182.856049,445.391876 182.940491,445.182983 
z"/>
<path fill="#60B077" opacity="1.000000" stroke="none" 
	d="
M245.920258,138.448517 
	C246.181229,138.245316 246.510864,138.318222 246.962433,138.638611 
	C246.719208,138.832245 246.354080,138.778427 245.920258,138.448517 
z"/>
<path fill="#D7EDDE" opacity="1.000000" stroke="none" 
	d="
M575.025757,16.846895 
	C571.005310,16.685904 567.468994,16.525042 563.932617,16.364182 
	C566.921936,12.395729 583.911072,12.207370 588.294373,15.051973 
	C584.150208,18.263273 579.589722,16.211878 575.025757,16.846895 
z"/>
<path fill="#F0F8F3" opacity="1.000000" stroke="none" 
	d="
M579.818970,7.411000 
	C582.759521,7.570714 585.228943,7.730058 588.562561,7.945160 
	C585.037903,11.489199 568.147217,11.887517 563.317078,8.989837 
	C568.822632,6.073108 574.257019,8.016672 579.818970,7.411000 
z"/>
<path fill="#F6FBF7" opacity="1.000000" stroke="none" 
	d="
M53.488686,11.308229 
	C55.772778,10.645171 57.986977,9.669719 59.847382,10.128608 
	C60.889172,10.385576 62.045612,13.105650 61.866810,14.557860 
	C61.688801,16.003609 60.170849,17.849163 58.773914,18.470415 
	C55.100685,20.104000 52.419060,16.628952 53.488686,11.308229 
z"/>
<path fill="#F6FBF7" opacity="1.000000" stroke="none" 
	d="
M34.867607,15.394460 
	C34.410145,11.707552 35.824276,9.144445 39.190273,9.384624 
	C40.888321,9.505788 43.497578,11.763768 43.727127,13.341782 
	C43.954075,14.901931 41.998543,17.841162 40.452812,18.290096 
	C38.994030,18.713779 36.822643,16.683889 34.867607,15.394460 
z"/>
<path fill="#F6FBF7" opacity="1.000000" stroke="none" 
	d="
M16.596552,13.283944 
	C17.649059,9.930831 19.793070,8.237193 22.670235,9.625997 
	C24.200758,10.364779 26.024904,13.046511 25.718548,14.398502 
	C25.329094,16.117216 23.064976,18.352926 21.339516,18.619284 
	C18.308422,19.087196 16.660128,16.744272 16.596552,13.283944 
z"/>
<path fill="#F6FBF7" opacity="1.000000" stroke="none" 
	d="
M585.388428,22.143692 
	C578.054382,22.162489 571.157166,22.162489 564.259949,22.162489 
	C564.128479,21.644001 563.997070,21.125513 563.865601,20.607025 
	C564.915100,20.084904 565.953735,19.138359 567.015808,19.111280 
	C572.813477,18.963455 578.619202,18.956514 584.416138,19.119375 
	C585.484070,19.149376 586.523804,20.181841 587.576599,20.751583 
	C586.992859,21.209345 586.409058,21.667120 585.388428,22.143692 
z"/>
<path fill="#FCFCFC" opacity="1.000000" stroke="none" 
	d="
M273.621094,416.842743 
	C273.986877,419.963531 273.961578,422.947754 273.896545,426.370972 
	C273.179047,427.844269 272.043274,428.820007 271.902313,429.922913 
	C271.262451,434.929108 270.902985,439.971130 270.396454,445.389282 
	C267.739044,445.789734 265.127777,445.801117 262.151611,445.409546 
	C263.036530,441.706818 260.712708,440.372437 258.568115,438.693665 
	C254.189362,435.265991 247.585800,433.724548 247.615128,426.345825 
	C247.615479,426.261047 247.038498,426.173950 246.632538,425.638733 
	C247.119339,420.929504 247.704620,416.669525 248.289886,412.409515 
	C248.881317,411.349854 249.782440,410.354523 250.018051,409.220917 
	C254.040527,389.867493 257.240814,370.303802 262.227112,351.205444 
	C265.042236,340.423126 266.267303,329.737579 267.274353,318.772278 
	C268.118744,309.577484 270.898865,300.559448 272.857269,291.470734 
	C272.973083,290.933289 273.404572,290.463867 274.249664,288.975769 
	C274.633453,291.002533 274.954285,291.984222 274.986877,292.975433 
	C275.511810,308.938110 276.040222,324.901031 276.439362,340.867096 
	C276.483093,342.616669 275.623627,344.370850 275.384399,346.149963 
	C275.088684,348.349396 275.100403,350.590607 274.795868,352.788330 
	C274.562866,354.469635 274.093201,356.124756 273.640594,357.767212 
	C273.176025,359.453094 272.189941,361.098114 272.143829,362.780548 
	C271.692932,379.246277 271.332275,395.715454 271.145782,412.185913 
	C271.128815,413.684570 272.502258,415.199036 273.621094,416.842743 
z"/>
<path fill="#FBFEFC" opacity="1.000000" stroke="none" 
	d="
M233.845551,445.842072 
	C227.591461,445.860504 221.337372,445.878937 214.631271,445.938660 
	C217.177414,437.614655 220.175552,429.249420 223.448181,420.301086 
	C224.103439,418.811707 224.484207,417.905334 224.864975,416.998993 
	C228.396652,411.708221 231.928345,406.417450 235.770172,400.963135 
	C236.138000,404.081116 236.195694,407.362640 236.718323,411.300964 
	C237.097595,416.921051 237.011948,421.884308 236.519562,426.934479 
	C235.357086,433.294922 234.601318,439.568512 233.845551,445.842072 
z"/>
<path fill="#955E68" opacity="1.000000" stroke="none" 
	d="
M294.805908,237.179367 
	C295.218597,237.833115 295.197723,238.475388 295.176422,239.438782 
	C278.877319,240.561539 262.578644,241.363205 245.725433,241.749863 
	C244.990356,239.339828 244.809830,237.344803 244.629318,235.349762 
	C252.478836,236.085815 260.315704,237.189194 268.181244,237.459641 
	C276.897949,237.759354 285.640839,237.297913 294.805908,237.179367 
z"/>
<path fill="#A16972" opacity="1.000000" stroke="none" 
	d="
M236.926285,426.847595 
	C237.011948,421.884308 237.097595,416.921051 237.102127,411.501465 
	C240.482346,411.430908 243.943695,411.816681 247.847473,412.306000 
	C247.704620,416.669525 247.119339,420.929504 246.233307,425.681458 
	C242.930450,426.398102 239.928375,426.622864 236.926285,426.847595 
z"/>
<path fill="#8BF4A9" opacity="1.000000" stroke="none" 
	d="
M244.462479,235.622620 
	C244.809830,237.344803 244.990356,239.339828 245.283310,241.764374 
	C243.640640,245.258362 241.885544,248.322845 240.005127,251.726379 
	C239.382431,250.055908 238.603241,248.065277 238.466690,246.031494 
	C238.329422,243.986862 238.831802,241.899307 239.066193,239.393280 
	C241.446579,239.008087 244.058563,239.475952 244.462479,235.622620 
z"/>
<path fill="#FBFBFB" opacity="1.000000" stroke="none" 
	d="
M280.372498,153.004578 
	C279.680481,149.274338 279.294983,145.692368 279.315063,141.571762 
	C280.501495,140.352921 281.282349,139.672714 282.063202,138.992508 
	C290.992462,139.057388 299.921692,139.122269 309.302155,139.204910 
	C308.218231,147.035233 306.683105,154.847809 305.112427,162.841385 
	C301.138855,163.165726 297.361267,163.764297 293.591461,163.718842 
	C286.618622,163.634796 284.520111,157.258026 280.372498,153.004578 
z"/>
<path fill="#955E68" opacity="1.000000" stroke="none" 
	d="
M282.193909,138.664459 
	C281.282349,139.672714 280.501495,140.352921 279.430359,141.151825 
	C279.823029,137.440048 280.401031,133.586914 281.222412,129.786392 
	C281.865906,126.808968 282.810730,123.896675 283.732758,120.552521 
	C284.343842,121.362839 284.876099,122.068611 285.663757,122.973129 
	C284.721008,128.226730 283.522827,133.281586 282.193909,138.664459 
z"/>
<path fill="#5CE181" opacity="1.000000" stroke="none" 
	d="
M193.817703,413.876648 
	C192.699463,413.724030 191.236694,413.542145 190.368500,412.726959 
	C189.390594,411.808807 188.948380,410.320068 188.273132,409.079498 
	C188.714798,408.847961 189.156464,408.616394 189.598129,408.384857 
	C190.977295,410.112518 192.356461,411.840179 193.817703,413.876648 
z"/>
<path fill="#60E285" opacity="1.000000" stroke="none" 
	d="
M182.987823,387.015930 
	C181.379089,385.799713 179.770355,384.583527 178.161636,383.367310 
	C178.561172,382.918488 178.960709,382.469635 179.360260,382.020782 
	C180.554565,383.447479 181.748886,384.874146 182.972366,386.649414 
	C183.001526,386.997986 182.987823,387.015930 182.987823,387.015930 
z"/>
<path fill="#B5F1C6" opacity="1.000000" stroke="none" 
	d="
M188.993774,442.993713 
	C191.701675,442.174835 194.409576,441.355988 197.117477,440.537140 
	C197.229141,440.953400 197.340820,441.369659 197.452484,441.785919 
	C195.562454,442.236237 193.672424,442.686584 191.064972,443.150879 
	C189.905609,443.117035 189.463684,443.069214 189.014511,443.014252 
	C189.007278,443.007141 188.993774,442.993713 188.993774,442.993713 
z"/>
<path fill="#60E285" opacity="1.000000" stroke="none" 
	d="
M183.988464,388.041565 
	C183.666626,387.929169 183.406174,387.734650 183.097458,387.236938 
	C182.987823,387.015930 183.001526,386.997986 183.008606,386.987976 
	C183.976746,386.128693 184.937790,385.279449 186.581833,383.826660 
	C186.340530,385.461548 186.201218,386.405396 185.696075,387.677643 
	C184.882980,388.017883 184.435715,388.029724 183.988464,388.041565 
z"/>
<path fill="#5CE181" opacity="1.000000" stroke="none" 
	d="
M184.955780,395.580566 
	C184.816177,394.491211 184.705933,393.748474 184.595673,393.005737 
	C184.893204,392.956421 185.190720,392.907104 185.488235,392.857788 
	C185.488235,394.874908 185.488235,396.892029 185.488235,400.254974 
	C185.221542,397.960785 185.103348,396.944000 184.955780,395.580566 
z"/>
<path fill="#59E080" opacity="1.000000" stroke="none" 
	d="
M214.343964,407.568054 
	C213.884781,408.889801 213.196320,410.014526 212.507858,411.139252 
	C212.215118,410.912231 211.922379,410.685211 211.629623,410.458191 
	C212.457993,409.429169 213.286346,408.400116 214.343964,407.568054 
z"/>
<path fill="#5CE181" opacity="1.000000" stroke="none" 
	d="
M221.353882,399.882874 
	C221.935272,399.181793 222.532059,398.784576 223.128845,398.387360 
	C223.268845,398.778778 223.408829,399.170166 223.548828,399.561584 
	C222.822311,399.769989 222.095795,399.978363 221.353882,399.882874 
z"/>
<path fill="#59E080" opacity="1.000000" stroke="none" 
	d="
M224.509216,417.007812 
	C224.484207,417.905334 224.103439,418.811707 223.506592,419.925995 
	C221.334351,418.473694 221.696899,417.455322 224.509216,417.007812 
z"/>
<path fill="#B5F1C6" opacity="1.000000" stroke="none" 
	d="
M184.264679,444.996613 
	C183.954544,444.973236 183.997299,444.491913 184.000244,444.250610 
	C184.179626,443.997864 184.356079,443.986450 185.019348,443.857483 
	C185.796036,443.578339 185.998459,443.341858 186.113403,443.030457 
	C186.833618,443.008301 187.553818,442.986145 188.633911,442.978821 
	C188.993774,442.993713 189.007278,443.007141 189.034393,443.268707 
	C188.971069,443.674744 188.880646,443.819214 188.790222,443.963684 
	C188.790222,443.963684 188.355820,443.998627 187.926605,444.127380 
	C187.199036,444.422821 187.022095,444.674805 186.966537,445.012085 
	C186.966537,445.012085 187.005005,445.006805 186.705170,445.000366 
	C186.000687,445.029968 185.596054,445.065979 185.191406,445.101990 
	C184.985870,445.074677 184.780334,445.047333 184.264679,444.996613 
z"/>
<path fill="#5CE181" opacity="1.000000" stroke="none" 
	d="
M183.998459,388.383850 
	C184.435715,388.029724 184.882980,388.017883 185.665741,388.004852 
	C185.706299,388.841309 185.411362,389.678955 185.116425,390.516602 
	C184.747101,389.919769 184.377777,389.322968 183.998459,388.383850 
z"/>
<path fill="#5CE181" opacity="1.000000" stroke="none" 
	d="
M186.986130,406.017975 
	C186.435974,405.563843 185.885803,405.109680 185.335648,404.655548 
	C185.673492,404.346313 186.011337,404.037079 186.349182,403.727844 
	C186.568008,404.274902 186.786819,404.821991 187.002838,405.684692 
	C187.000046,406.000305 186.986130,406.017975 186.986130,406.017975 
z"/>
<path fill="#59E080" opacity="1.000000" stroke="none" 
	d="
M208.132751,418.624725 
	C208.415421,418.039215 208.723679,417.726135 209.031952,417.413086 
	C209.217743,417.780121 209.403534,418.147186 209.589310,418.514221 
	C209.112320,418.641846 208.635330,418.769501 208.132751,418.624725 
z"/>
<path fill="#64DF87" opacity="1.000000" stroke="none" 
	d="
M196.387970,359.954895 
	C196.788513,359.710449 197.187119,359.712097 197.583511,359.742584 
	C197.594589,359.743439 197.582016,360.052368 197.580475,360.217651 
	C197.182220,360.213440 196.783966,360.209229 196.387970,359.954895 
z"/>
<path fill="#B5F1C6" opacity="1.000000" stroke="none" 
	d="
M188.105316,378.083344 
	C187.918961,379.239136 187.732605,380.394928 187.274506,381.775757 
	C187.002777,382.000793 187.033127,382.027405 187.033127,382.027405 
	C187.135269,380.813751 187.237427,379.600067 187.673508,378.194794 
	C188.007431,378.003174 188.105316,378.083344 188.105316,378.083344 
z"/>
<path fill="#59E080" opacity="1.000000" stroke="none" 
	d="
M188.955170,444.260284 
	C188.880646,443.819214 188.971069,443.674744 189.041626,443.275818 
	C189.463684,443.069214 189.905609,443.117035 190.676666,443.222534 
	C191.003296,443.696289 191.000824,444.112396 190.995346,444.844055 
	C190.368286,444.958710 189.744202,444.757812 188.955170,444.260284 
z"/>
<path fill="#59E080" opacity="1.000000" stroke="none" 
	d="
M209.392517,424.466309 
	C208.941544,424.349915 208.665009,424.065887 208.409851,423.763794 
	C208.403336,423.756073 208.631195,423.550385 208.749725,423.437042 
	C209.023087,423.723450 209.296432,424.009857 209.392517,424.466309 
z"/>
<path fill="#5CE181" opacity="1.000000" stroke="none" 
	d="
M229.799606,393.658020 
	C230.140976,393.953217 230.272995,394.194946 230.404999,394.436646 
	C230.154968,394.508362 229.904953,394.580048 229.654938,394.651764 
	C229.633362,394.302704 229.611801,393.953613 229.799606,393.658020 
z"/>
<path fill="#5CE181" opacity="1.000000" stroke="none" 
	d="
M217.740738,399.557739 
	C217.872665,399.138824 218.158691,398.870728 218.444702,398.602631 
	C218.534439,398.715179 218.714966,398.912201 218.700455,398.927765 
	C218.446106,399.201233 218.167862,399.452454 217.740738,399.557739 
z"/>
<path fill="#5CE181" opacity="1.000000" stroke="none" 
	d="
M226.472076,396.501831 
	C226.398712,396.090393 226.480103,395.836700 226.561478,395.582977 
	C226.838913,395.866669 227.116364,396.150360 227.393799,396.434052 
	C227.138138,396.509216 226.882477,396.584381 226.472076,396.501831 
z"/>
<path fill="#5CE181" opacity="1.000000" stroke="none" 
	d="
M232.885559,392.704834 
	C232.593964,392.787506 232.207169,392.696960 232.123444,392.486053 
	C232.055481,392.314850 232.351318,391.999207 232.485840,391.747650 
	C232.631012,391.991638 232.776169,392.235657 232.885559,392.704834 
z"/>
<path fill="#B5F1C6" opacity="1.000000" stroke="none" 
	d="
M203.279999,439.669647 
	C202.848236,439.701721 202.591354,439.579346 202.334473,439.456940 
	C202.452408,439.355408 202.596695,439.149719 202.683380,439.171631 
	C202.952301,439.239716 203.199356,439.394226 203.279999,439.669647 
z"/>
<path fill="#B5F1C6" opacity="1.000000" stroke="none" 
	d="
M200.431458,440.703979 
	C199.992447,440.687805 199.758362,440.499329 199.524292,440.310852 
	C199.894989,440.384430 200.265686,440.458038 200.431458,440.703979 
z"/>
<path fill="#B5F1C6" opacity="1.000000" stroke="none" 
	d="
M189.838928,372.867371 
	C190.098480,372.405121 190.358017,371.942841 190.617554,371.480560 
	C190.611908,371.915985 190.606277,372.351379 190.289948,372.886322 
	C189.979263,372.985840 189.838928,372.867371 189.838928,372.867371 
z"/>
<path fill="#59E080" opacity="1.000000" stroke="none" 
	d="
M212.258026,422.643982 
	C212.008072,422.629211 211.871811,422.495361 211.735535,422.361511 
	C211.947601,422.415955 212.159653,422.470428 212.258026,422.643982 
z"/>
<path fill="#B5F1C6" opacity="1.000000" stroke="none" 
	d="
M193.854553,364.871399 
	C194.054520,364.381927 194.345810,363.970215 194.637115,363.558502 
	C194.614273,363.963104 194.591431,364.367737 194.348907,364.938110 
	C194.129227,365.103851 193.945892,364.949158 193.854553,364.871399 
z"/>
<path fill="#5CE181" opacity="1.000000" stroke="none" 
	d="
M218.646332,401.738220 
	C218.631577,401.991425 218.495926,402.129639 218.360260,402.267853 
	C218.415329,402.052979 218.470383,401.838135 218.646332,401.738220 
z"/>
<path fill="#B5F1C6" opacity="1.000000" stroke="none" 
	d="
M187.960083,377.961182 
	C188.018478,377.370239 188.124207,376.821228 188.229935,376.272247 
	C188.404053,376.295227 188.578156,376.318207 188.752274,376.341187 
	C188.703934,376.820251 188.655594,377.299316 188.356293,377.930847 
	C188.105316,378.083344 188.007431,378.003174 187.960083,377.961182 
z"/>
<path fill="#B5F1C6" opacity="1.000000" stroke="none" 
	d="
M190.047958,373.046814 
	C189.863037,373.574066 189.609421,374.040375 189.355804,374.506683 
	C189.356430,374.069580 189.357071,373.632477 189.598328,373.031372 
	C189.838928,372.867371 189.979263,372.985840 190.047958,373.046814 
z"/>
<path fill="#5CE181" opacity="1.000000" stroke="none" 
	d="
M187.008835,405.993286 
	C187.136108,406.135956 187.254593,406.285675 187.373077,406.435425 
	C187.283783,406.387970 187.194489,406.340485 187.045654,406.155487 
	C186.986130,406.017975 187.000046,406.000305 187.008835,405.993286 
z"/>
<path fill="#B5F1C6" opacity="1.000000" stroke="none" 
	d="
M186.989990,381.985229 
	C186.891846,382.002350 186.806503,382.035004 186.877136,382.047546 
	C187.033127,382.027405 187.002777,382.000793 186.989990,381.985229 
z"/>
<path fill="#59E080" opacity="1.000000" stroke="none" 
	d="
M185.890381,443.098877 
	C185.998459,443.341858 185.796036,443.578339 185.274963,443.786621 
	C185.171326,443.536163 185.379196,443.314148 185.890381,443.098877 
z"/>
<path fill="#B5F1C6" opacity="1.000000" stroke="none" 
	d="
M191.391052,369.334473 
	C191.598328,369.301361 191.671417,369.407379 191.744522,369.513428 
	C191.581970,369.500153 191.419403,369.486908 191.391052,369.334473 
z"/>
<path fill="#353546" opacity="1.000000" stroke="none" 
	d="
M236.519562,426.934509 
	C239.928375,426.622864 242.930450,426.398102 246.331772,426.130676 
	C247.038498,426.173950 247.615479,426.261047 247.615128,426.345825 
	C247.585800,433.724548 254.189362,435.265991 258.568115,438.693665 
	C260.712708,440.372437 263.036530,441.706818 261.664307,445.372620 
	C252.607147,445.794434 243.672348,445.850189 234.291534,445.874023 
	C234.601318,439.568512 235.357086,433.294922 236.519562,426.934509 
z"/>
<path fill="#59E080" opacity="1.000000" stroke="none" 
	d="
M185.297241,445.341461 
	C185.596054,445.065979 186.000687,445.029968 186.710953,444.981842 
	C186.478745,445.173462 185.940918,445.377197 185.297241,445.341461 
z"/>
<path fill="#59E080" opacity="1.000000" stroke="none" 
	d="
M187.214523,444.953339 
	C187.022095,444.674805 187.199036,444.422821 187.710175,444.152710 
	C187.769470,444.331085 187.615982,444.612823 187.214523,444.953339 
z"/>
<path fill="#59DF7F" opacity="1.000000" stroke="none" 
	d="
M431.983429,212.097992 
	C431.983398,209.660797 431.983398,207.707062 431.983398,204.919922 
	C436.254944,205.392319 439.959808,205.644821 443.577545,206.346695 
	C444.230682,206.473389 444.889557,208.435944 444.922974,209.569260 
	C445.069733,214.546494 444.876465,219.533920 445.030975,224.510666 
	C445.122314,227.452209 444.643494,229.372513 441.040863,229.023071 
	C437.407715,228.670670 432.776825,230.054291 432.097870,224.525589 
	C431.615631,220.598770 431.990936,216.566620 431.983429,212.097992 
z"/>
<path fill="#59DF7F" opacity="1.000000" stroke="none" 
	d="
M469.124390,228.902557 
	C463.326569,228.930923 457.526215,228.867798 451.732025,229.027512 
	C448.970306,229.103638 447.861298,228.135803 447.948364,225.308044 
	C448.101196,220.342651 448.081726,215.367020 447.958191,210.400070 
	C447.892944,207.777573 448.985535,206.807007 451.503113,206.985367 
	C457.091461,207.381302 462.684509,207.710297 468.638702,208.456635 
	C468.877075,209.568192 468.752411,210.289703 468.279510,210.945602 
	C467.161530,210.590836 466.402283,210.268707 465.620239,210.017822 
	C460.592255,208.404953 455.317200,210.843475 454.091400,215.333160 
	C452.529388,221.054321 455.909393,226.999344 461.526794,227.563507 
	C463.806152,227.792435 466.232483,226.557770 468.676697,226.350372 
	C468.882446,227.441971 469.003418,228.172272 469.124390,228.902557 
z"/>
<path fill="#FBFBFB" opacity="1.000000" stroke="none" 
	d="
M478.777740,213.290695 
	C478.495056,210.084076 479.302979,209.059052 482.416504,209.469269 
	C490.839478,210.578995 490.854919,210.413040 489.219452,218.831619 
	C488.997894,219.972000 488.923218,221.140915 488.700867,222.281082 
	C487.312195,229.401932 487.304749,229.400482 478.777557,228.372330 
	C478.777557,223.573120 478.777557,218.663025 478.777740,213.290695 
z"/>
<path fill="#F0F8F3" opacity="1.000000" stroke="none" 
	d="
M468.627716,211.011200 
	C468.752411,210.289703 468.877075,209.568192 469.104309,208.496185 
	C471.302551,208.475311 473.398254,208.804962 475.591736,209.149994 
	C475.591736,215.728012 475.591736,222.061081 475.591736,228.893814 
	C473.527588,228.893814 471.759857,228.893814 469.558258,228.898193 
	C469.003418,228.172272 468.882446,227.441971 468.837524,226.013611 
	C473.031891,220.463196 472.082336,215.712158 468.627716,211.011200 
z"/>
<path fill="#ECF6EF" opacity="1.000000" stroke="none" 
	d="
M357.784363,247.031570 
	C360.760040,247.830856 360.773407,248.986969 358.391174,249.848190 
	C357.055939,250.330902 355.450287,250.065781 353.672516,250.151840 
	C353.347565,252.382446 353.029419,254.566483 352.711243,256.750519 
	C352.256439,256.844727 351.801605,256.938934 351.346802,257.033112 
	C350.823853,254.958038 350.300903,252.882950 349.676239,250.404221 
	C347.756439,250.088821 345.503937,249.718750 343.251434,249.348679 
	C343.244293,248.849579 343.237152,248.350464 343.230011,247.851349 
	C345.315918,247.435333 347.401825,247.019333 349.762085,246.548599 
	C350.162933,244.484863 350.595978,242.255325 351.118103,239.567123 
	C354.732513,241.607285 350.862488,248.509216 357.784363,247.031570 
z"/>
<path fill="#ECF6EF" opacity="1.000000" stroke="none" 
	d="
M493.507263,135.633133 
	C495.016571,134.234589 496.886932,133.079605 499.593964,131.407944 
	C499.712494,130.540878 500.004944,128.401489 500.297363,126.262093 
	C500.759857,126.211182 501.222382,126.160278 501.684875,126.109375 
	C502.200714,128.131897 502.716583,130.154434 503.335266,132.580154 
	C505.207367,132.968521 507.454254,133.434631 509.701111,133.900726 
	C509.702515,134.410583 509.703918,134.920456 509.705322,135.430313 
	C507.621490,135.756149 505.537659,136.082001 503.184937,136.449905 
	C502.830292,138.615051 502.462311,140.861664 502.094330,143.108276 
	C501.537415,143.102280 500.980499,143.096283 500.423553,143.090286 
	C500.119995,141.013214 499.816437,138.936142 499.444336,136.390091 
	C497.688232,136.228394 495.778290,136.052536 493.507263,135.633133 
z"/>
<path fill="#ECF6EF" opacity="1.000000" stroke="none" 
	d="
M210.919800,131.832428 
	C213.949570,132.885605 213.661575,133.959351 211.234375,134.624130 
	C209.835159,135.007355 208.286880,134.846237 206.581451,134.942856 
	C206.234802,137.220825 205.905670,139.383667 205.576538,141.546524 
	C205.114151,141.618042 204.651764,141.689575 204.189377,141.761093 
	C203.653427,139.624496 203.117493,137.487900 202.543015,135.197693 
	C200.523087,134.801346 198.390488,134.382904 196.257904,133.964462 
	C196.244324,133.478043 196.230743,132.991623 196.217163,132.505203 
	C198.300812,132.125565 200.384476,131.745926 202.599594,131.342331 
	C203.077957,129.196060 203.568085,126.997093 204.199783,124.162865 
	C207.456131,126.670326 203.953293,133.390228 210.919800,131.832428 
z"/>
<path fill="#67BB7F" opacity="1.000000" stroke="none" 
	d="
M468.279510,210.945602 
	C472.082336,215.712158 473.031891,220.463196 468.752808,225.652313 
	C466.232483,226.557770 463.806152,227.792435 461.526794,227.563507 
	C455.909393,226.999344 452.529388,221.054321 454.091400,215.333160 
	C455.317200,210.843475 460.592255,208.404953 465.620239,210.017822 
	C466.402283,210.268707 467.161530,210.590836 468.279510,210.945602 
z"/>
</svg>