<svg xmlns="http://www.w3.org/2000/svg" xmlns:xlink="http://www.w3.org/1999/xlink" width="100" zoomAndPan="magnify" viewBox="0 0 75 74.999997" height="100" preserveAspectRatio="xMidYMid meet" version="1.0"><defs><filter x="0%" y="0%" width="100%" height="100%" id="f8541813f4"><feColorMatrix values="0 0 0 0 1 0 0 0 0 1 0 0 0 0 1 0 0 0 1 0" color-interpolation-filters="sRGB"/></filter><g/><mask id="d9399486c2"><g filter="url(#f8541813f4)"><rect x="-7.5" width="90" fill="#000000" y="-7.5" height="89.999996" fill-opacity="0.898"/></g></mask><clipPath id="ec6b12f0c7"><path d="M 1 1 L 25.957031 1 L 25.957031 23 L 1 23 Z M 1 1 " clip-rule="nonzero"/></clipPath><clipPath id="87f43d5dee"><rect x="0" width="28" y="0" height="24"/></clipPath><mask id="ca8a2cb9a1"><g filter="url(#f8541813f4)"><rect x="-7.5" width="90" fill="#000000" y="-7.5" height="89.999996" fill-opacity="0.898"/></g></mask><clipPath id="64f22ac621"><path d="M 1 1.816406 L 28 1.816406 L 28 26.878906 L 1 26.878906 Z M 1 1.816406 " clip-rule="nonzero"/></clipPath><clipPath id="8242241d30"><rect x="0" width="29" y="0" height="27"/></clipPath><mask id="5d3cecacde"><g filter="url(#f8541813f4)"><rect x="-7.5" width="90" fill="#000000" y="-7.5" height="89.999996" fill-opacity="0.898"/></g></mask><clipPath id="1a8847ed70"><path d="M 0.578125 1 L 28 1 L 28 29.335938 L 0.578125 29.335938 Z M 0.578125 1 " clip-rule="nonzero"/></clipPath><clipPath id="b7d3e890f9"><rect x="0" width="30" y="0" height="30"/></clipPath><clipPath id="ee88d46bf6"><path d="M 25.023438 33.648438 L 54.246094 33.648438 L 54.246094 58.394531 L 25.023438 58.394531 Z M 25.023438 33.648438 " clip-rule="nonzero"/></clipPath></defs><g mask="url(#d9399486c2)"><g transform="matrix(1, 0, 0, 1, 42, 41)"><g clip-path="url(#87f43d5dee)"><g clip-path="url(#ec6b12f0c7)"><path fill="#57e07e" d="M 25.988281 19.699219 L 20.070312 9.121094 L 23.523438 7.253906 L 13.289062 1.160156 L 13.039062 12.980469 L 16.492188 11.113281 L 20.6875 18.703125 L 3.054688 18.703125 C 1.941406 18.703125 1.078125 19.574219 1.078125 20.695312 C 1.078125 21.8125 1.941406 22.683594 3.054688 22.683594 L 24.261719 22.683594 C 25 22.683594 25.617188 22.3125 25.988281 21.6875 C 26.359375 21.066406 26.359375 20.320312 25.988281 19.699219 Z M 25.988281 19.699219 " fill-opacity="1" fill-rule="nonzero"/></g></g></g></g><g mask="url(#ca8a2cb9a1)"><g transform="matrix(1, 0, 0, 1, 23, 6)"><g clip-path="url(#8242241d30)"><g clip-path="url(#64f22ac621)"><path fill="#57e07e" d="M 23.65625 24.710938 C 24.027344 25.332031 24.765625 25.707031 25.382812 25.707031 C 25.753906 25.707031 26 25.582031 26.367188 25.457031 C 27.355469 24.960938 27.726562 23.714844 27.109375 22.71875 L 16.132812 2.8125 C 15.765625 2.1875 15.148438 1.816406 14.40625 1.816406 C 13.667969 1.816406 13.050781 2.1875 12.679688 2.8125 L 5.035156 16.5 L 1.832031 14.757812 L 2.199219 26.578125 L 11.695312 20.230469 L 8.613281 18.488281 L 14.40625 8.035156 Z M 23.65625 24.710938 " fill-opacity="1" fill-rule="nonzero"/></g></g></g></g><g mask="url(#5d3cecacde)"><g transform="matrix(1, 0, 0, 1, 6, 38)"><g clip-path="url(#b7d3e890f9)"><g clip-path="url(#1a8847ed70)"><path fill="#57e07e" d="M 17.597656 21.703125 L 6.007812 21.703125 L 15.378906 4.90625 C 15.871094 3.910156 15.625 2.664062 14.636719 2.167969 C 13.652344 1.667969 12.417969 1.917969 11.925781 2.914062 L 0.949219 22.824219 C 0.582031 23.445312 0.582031 24.191406 0.949219 24.8125 C 1.320312 25.4375 1.9375 25.808594 2.675781 25.808594 L 17.722656 25.808594 L 17.722656 29.667969 L 27.957031 23.695312 L 17.722656 17.722656 L 17.722656 21.703125 Z M 17.597656 21.703125 " fill-opacity="1" fill-rule="nonzero"/></g></g></g></g><g clip-path="url(#ee88d46bf6)"><path fill="#57e07e" d="M 54.246094 45.664062 C 54.246094 45.664062 50.027344 48.320312 46.949219 46.570312 C 43.871094 44.824219 41.824219 41.667969 40.941406 41.824219 C 40.433594 41.914062 39.328125 43.105469 39.191406 43.277344 C 39.050781 43.457031 38.878906 43.671875 38.691406 43.925781 C 38.503906 44.179688 38.300781 44.472656 38.082031 44.792969 C 37.976562 44.957031 37.859375 45.121094 37.75 45.300781 C 37.695312 45.390625 37.636719 45.480469 37.578125 45.570312 C 37.523438 45.664062 37.46875 45.753906 37.410156 45.851562 C 37.292969 46.039062 37.183594 46.238281 37.066406 46.441406 C 36.953125 46.644531 36.839844 46.851562 36.726562 47.066406 C 36.617188 47.285156 36.5 47.5 36.398438 47.726562 C 36.34375 47.835938 36.289062 47.949219 36.234375 48.0625 C 36.1875 48.179688 36.132812 48.292969 36.082031 48.410156 C 35.976562 48.640625 35.886719 48.878906 35.792969 49.113281 C 35.742188 49.234375 35.703125 49.355469 35.65625 49.472656 L 35.527344 49.835938 L 35.410156 50.199219 C 35.371094 50.320312 35.328125 50.441406 35.296875 50.566406 C 35.230469 50.8125 35.15625 51.054688 35.105469 51.296875 C 35.074219 51.421875 35.046875 51.542969 35.019531 51.664062 C 34.992188 51.785156 34.972656 51.90625 34.949219 52.027344 C 34.929688 52.144531 34.90625 52.265625 34.886719 52.386719 C 34.867188 52.503906 34.851562 52.621094 34.835938 52.742188 C 34.824219 52.859375 34.800781 52.972656 34.792969 53.089844 C 34.785156 53.207031 34.773438 53.320312 34.765625 53.433594 C 34.742188 53.660156 34.742188 53.882812 34.734375 54.101562 C 34.734375 54.207031 34.726562 54.316406 34.730469 54.417969 C 34.734375 54.523438 34.738281 54.628906 34.742188 54.730469 C 34.742188 54.828125 34.746094 54.929688 34.75 55.027344 C 34.761719 55.125 34.769531 55.21875 34.777344 55.3125 C 34.785156 55.40625 34.796875 55.5 34.804688 55.585938 C 34.808594 55.632812 34.8125 55.675781 34.816406 55.71875 C 34.824219 55.761719 34.832031 55.804688 34.839844 55.847656 C 34.867188 56.015625 34.890625 56.175781 34.917969 56.324219 C 34.925781 56.402344 34.949219 56.472656 34.960938 56.542969 C 34.976562 56.609375 34.992188 56.675781 35.007812 56.742188 C 35.039062 56.867188 35.0625 56.988281 35.09375 57.089844 C 35.21875 57.507812 35.292969 57.746094 35.292969 57.746094 L 35.304688 57.777344 C 35.382812 58.027344 35.238281 58.296875 34.984375 58.375 C 34.726562 58.449219 34.457031 58.308594 34.382812 58.054688 C 34.378906 58.050781 34.375 58.042969 34.375 58.035156 C 34.375 58.035156 34.308594 57.773438 34.1875 57.3125 C 34.164062 57.195312 34.140625 57.066406 34.113281 56.925781 C 34.101562 56.855469 34.085938 56.78125 34.074219 56.707031 C 34.0625 56.628906 34.042969 56.550781 34.035156 56.46875 C 34.015625 56.308594 33.996094 56.132812 33.972656 55.949219 C 33.96875 55.902344 33.964844 55.855469 33.957031 55.808594 C 33.953125 55.761719 33.953125 55.714844 33.949219 55.664062 C 33.945312 55.570312 33.941406 55.46875 33.933594 55.371094 C 33.929688 55.269531 33.925781 55.164062 33.917969 55.058594 C 33.921875 54.957031 33.921875 54.847656 33.921875 54.738281 C 33.925781 54.628906 33.925781 54.519531 33.925781 54.40625 C 33.925781 54.296875 33.941406 54.183594 33.949219 54.066406 C 33.964844 53.835938 33.976562 53.601562 34.011719 53.363281 C 34.027344 53.242188 34.042969 53.121094 34.058594 53 C 34.074219 52.875 34.101562 52.753906 34.121094 52.632812 C 34.144531 52.507812 34.167969 52.386719 34.191406 52.261719 C 34.214844 52.136719 34.246094 52.011719 34.273438 51.886719 C 34.304688 51.761719 34.332031 51.636719 34.363281 51.511719 C 34.398438 51.386719 34.433594 51.261719 34.46875 51.132812 C 34.535156 50.878906 34.625 50.632812 34.707031 50.382812 C 34.746094 50.253906 34.792969 50.132812 34.839844 50.007812 L 34.976562 49.636719 L 35.128906 49.269531 C 35.179688 49.148438 35.226562 49.027344 35.285156 48.90625 C 35.394531 48.667969 35.5 48.429688 35.617188 48.195312 C 35.675781 48.082031 35.734375 47.964844 35.789062 47.851562 C 35.851562 47.738281 35.910156 47.625 35.96875 47.511719 C 36.085938 47.285156 36.214844 47.070312 36.335938 46.855469 C 36.460938 46.644531 36.585938 46.433594 36.710938 46.234375 C 36.839844 46.035156 36.960938 45.835938 37.085938 45.648438 C 37.152344 45.554688 37.210938 45.464844 37.273438 45.375 C 37.335938 45.285156 37.398438 45.195312 37.457031 45.109375 C 37.578125 44.933594 37.703125 44.769531 37.816406 44.609375 C 38.054688 44.292969 38.273438 44.007812 38.476562 43.761719 C 38.675781 43.511719 38.859375 43.300781 39.007812 43.128906 C 39.136719 42.980469 39.242188 42.863281 39.324219 42.777344 C 39.324219 42.777344 39.066406 41.308594 38.664062 40.835938 C 37.964844 40.015625 34.578125 41.136719 30.992188 40.246094 C 27.40625 39.355469 25.023438 33.792969 25.023438 33.792969 C 25.023438 33.792969 27.796875 33.796875 31.148438 33.652344 C 35.457031 33.46875 38.21875 38.851562 38.886719 40.445312 C 39.289062 41.398438 39.46875 42.097656 39.546875 42.507812 C 39.785156 42.246094 40.226562 41.828125 40.945312 41.371094 C 42.144531 40.601562 46.570312 38.339844 49.71875 41.398438 C 52.167969 43.785156 54.246094 45.664062 54.246094 45.664062 " fill-opacity="1" fill-rule="nonzero"/></g><path fill="#ffffff" d="M 44.023438 43.066406 C 44.011719 43.039062 43.996094 43.007812 43.980469 42.976562 C 43.960938 42.941406 43.949219 42.902344 43.929688 42.863281 C 43.914062 42.824219 43.898438 42.78125 43.886719 42.734375 C 43.871094 42.691406 43.859375 42.644531 43.847656 42.597656 C 43.832031 42.546875 43.824219 42.5 43.816406 42.449219 C 43.796875 42.351562 43.785156 42.25 43.777344 42.15625 C 43.769531 42.0625 43.765625 41.976562 43.765625 41.902344 C 43.769531 41.75 43.78125 41.652344 43.78125 41.652344 L 43.742188 41.648438 C 43.742188 41.648438 43.734375 41.75 43.738281 41.902344 C 43.738281 41.976562 43.742188 42.066406 43.75 42.160156 C 43.761719 42.253906 43.777344 42.355469 43.796875 42.453125 C 43.808594 42.503906 43.816406 42.550781 43.832031 42.601562 C 43.84375 42.648438 43.859375 42.695312 43.875 42.738281 C 43.890625 42.785156 43.90625 42.828125 43.921875 42.867188 C 43.941406 42.90625 43.953125 42.945312 43.972656 42.976562 C 43.992188 43.011719 44.007812 43.042969 44.023438 43.070312 C 44.039062 43.09375 44.050781 43.117188 44.066406 43.136719 C 44.089844 43.171875 44.101562 43.195312 44.101562 43.195312 C 44.101562 43.195312 44.089844 43.171875 44.066406 43.136719 C 44.054688 43.117188 44.039062 43.09375 44.023438 43.066406 Z M 48.085938 45.855469 L 48.109375 45.828125 C 48.109375 45.828125 48.097656 45.835938 48.089844 45.835938 C 48.085938 45.832031 48.085938 45.832031 48.082031 45.828125 C 48.085938 45.832031 48.085938 45.832031 48.089844 45.835938 C 48.089844 45.84375 48.082031 45.855469 48.085938 45.855469 Z M 48.074219 45.820312 C 48.078125 45.820312 48.078125 45.824219 48.082031 45.828125 C 48.078125 45.824219 48.078125 45.820312 48.074219 45.820312 Z M 52.628906 45.53125 C 52.265625 45.515625 51.75 45.449219 51.15625 45.277344 C 51.117188 45.265625 51.074219 45.253906 51.03125 45.242188 C 51.042969 45.234375 51.050781 45.222656 51.0625 45.210938 C 51.082031 45.191406 51.101562 45.171875 51.128906 45.152344 C 51.160156 45.128906 51.1875 45.105469 51.222656 45.082031 C 51.261719 45.0625 51.300781 45.035156 51.34375 45.011719 C 51.386719 44.992188 51.433594 44.96875 51.484375 44.949219 C 51.535156 44.929688 51.585938 44.90625 51.636719 44.890625 C 51.691406 44.875 51.746094 44.855469 51.800781 44.84375 C 51.859375 44.828125 51.914062 44.816406 51.96875 44.804688 C 52.023438 44.789062 52.078125 44.78125 52.132812 44.773438 C 52.238281 44.753906 52.339844 44.742188 52.425781 44.730469 C 52.59375 44.714844 52.710938 44.710938 52.710938 44.710938 C 52.710938 44.710938 52.59375 44.710938 52.421875 44.726562 C 52.335938 44.734375 52.238281 44.746094 52.128906 44.761719 C 52.078125 44.769531 52.019531 44.777344 51.964844 44.789062 C 51.910156 44.800781 51.855469 44.8125 51.796875 44.824219 C 51.742188 44.839844 51.6875 44.855469 51.632812 44.871094 C 51.578125 44.886719 51.523438 44.910156 51.472656 44.925781 C 51.421875 44.945312 51.375 44.96875 51.332031 44.988281 C 51.285156 45.011719 51.246094 45.035156 51.207031 45.054688 C 51.167969 45.078125 51.140625 45.105469 51.109375 45.125 C 51.078125 45.144531 51.058594 45.167969 51.039062 45.183594 C 51.019531 45.207031 51.003906 45.21875 50.992188 45.230469 C 50.441406 45.058594 49.832031 44.792969 49.226562 44.433594 C 49.195312 44.414062 49.164062 44.394531 49.132812 44.375 C 49.152344 44.351562 49.207031 44.28125 49.296875 44.195312 C 49.324219 44.167969 49.355469 44.136719 49.386719 44.109375 C 49.421875 44.078125 49.460938 44.054688 49.496094 44.023438 C 49.539062 43.996094 49.578125 43.964844 49.621094 43.941406 C 49.664062 43.914062 49.710938 43.886719 49.757812 43.863281 C 49.78125 43.855469 49.804688 43.839844 49.828125 43.832031 C 49.851562 43.820312 49.875 43.8125 49.898438 43.800781 C 49.945312 43.78125 49.996094 43.769531 50.042969 43.753906 C 50.085938 43.738281 50.132812 43.730469 50.175781 43.722656 C 50.199219 43.71875 50.222656 43.714844 50.242188 43.710938 C 50.261719 43.707031 50.28125 43.707031 50.300781 43.703125 C 50.339844 43.703125 50.375 43.695312 50.410156 43.695312 C 50.441406 43.695312 50.46875 43.695312 50.492188 43.695312 C 50.535156 43.695312 50.5625 43.695312 50.5625 43.695312 C 50.5625 43.695312 50.535156 43.695312 50.492188 43.695312 C 50.46875 43.695312 50.441406 43.691406 50.410156 43.691406 C 50.375 43.691406 50.339844 43.695312 50.300781 43.699219 C 50.28125 43.699219 50.261719 43.703125 50.242188 43.703125 C 50.21875 43.707031 50.199219 43.710938 50.175781 43.714844 C 50.132812 43.722656 50.085938 43.730469 50.039062 43.742188 C 49.992188 43.757812 49.941406 43.769531 49.894531 43.789062 C 49.871094 43.796875 49.84375 43.808594 49.820312 43.816406 C 49.796875 43.828125 49.773438 43.839844 49.75 43.847656 C 49.699219 43.871094 49.65625 43.894531 49.609375 43.921875 C 49.566406 43.945312 49.523438 43.976562 49.484375 44.003906 C 49.445312 44.03125 49.402344 44.058594 49.371094 44.089844 C 49.335938 44.117188 49.300781 44.144531 49.273438 44.171875 C 49.175781 44.257812 49.117188 44.332031 49.101562 44.355469 C 48.8125 44.179688 48.523438 43.980469 48.242188 43.765625 C 48.082031 43.644531 47.925781 43.507812 47.765625 43.375 C 47.765625 43.375 47.765625 43.371094 47.765625 43.371094 C 47.769531 43.359375 47.773438 43.339844 47.777344 43.316406 C 47.785156 43.296875 47.792969 43.269531 47.804688 43.238281 C 47.816406 43.207031 47.832031 43.171875 47.851562 43.136719 C 47.867188 43.101562 47.890625 43.066406 47.917969 43.027344 C 47.933594 43.007812 47.945312 42.992188 47.960938 42.972656 C 47.976562 42.953125 47.996094 42.9375 48.011719 42.917969 C 48.046875 42.878906 48.089844 42.851562 48.132812 42.816406 C 48.175781 42.789062 48.21875 42.753906 48.269531 42.730469 C 48.320312 42.710938 48.367188 42.683594 48.417969 42.667969 C 48.46875 42.652344 48.519531 42.632812 48.570312 42.625 C 48.621094 42.617188 48.667969 42.601562 48.714844 42.597656 C 48.761719 42.59375 48.808594 42.589844 48.847656 42.585938 C 48.890625 42.578125 48.925781 42.582031 48.960938 42.582031 C 48.992188 42.582031 49.023438 42.582031 49.046875 42.582031 C 49.09375 42.582031 49.121094 42.582031 49.121094 42.582031 C 49.121094 42.582031 49.09375 42.578125 49.046875 42.578125 C 49.023438 42.578125 48.992188 42.578125 48.960938 42.578125 C 48.925781 42.574219 48.886719 42.574219 48.847656 42.578125 C 48.804688 42.582031 48.761719 42.585938 48.714844 42.589844 C 48.667969 42.59375 48.617188 42.605469 48.566406 42.613281 C 48.515625 42.621094 48.464844 42.640625 48.414062 42.65625 C 48.359375 42.667969 48.3125 42.695312 48.261719 42.714844 C 48.210938 42.738281 48.164062 42.769531 48.117188 42.796875 C 48.078125 42.832031 48.03125 42.859375 47.996094 42.898438 C 47.976562 42.917969 47.957031 42.933594 47.941406 42.953125 C 47.925781 42.972656 47.910156 42.992188 47.894531 43.011719 C 47.867188 43.050781 47.84375 43.085938 47.820312 43.125 C 47.800781 43.160156 47.785156 43.195312 47.773438 43.226562 C 47.761719 43.257812 47.753906 43.285156 47.746094 43.308594 C 47.738281 43.324219 47.738281 43.335938 47.734375 43.347656 C 47.589844 43.226562 47.441406 43.105469 47.285156 42.992188 C 46.765625 42.613281 46.195312 42.3125 45.621094 42.089844 C 45.625 42.074219 45.632812 42.046875 45.644531 42.007812 C 45.667969 41.949219 45.699219 41.867188 45.75 41.769531 C 45.800781 41.671875 45.863281 41.5625 45.949219 41.457031 C 45.992188 41.40625 46.039062 41.351562 46.089844 41.304688 C 46.144531 41.253906 46.199219 41.207031 46.257812 41.167969 C 46.316406 41.125 46.382812 41.09375 46.449219 41.0625 C 46.511719 41.035156 46.582031 41.011719 46.648438 40.996094 C 46.679688 40.988281 46.710938 40.980469 46.746094 40.976562 C 46.777344 40.972656 46.808594 40.96875 46.839844 40.96875 C 46.902344 40.960938 46.964844 40.964844 47.019531 40.964844 C 47.074219 40.972656 47.121094 40.972656 47.167969 40.980469 C 47.210938 40.988281 47.25 40.996094 47.28125 41.003906 C 47.34375 41.019531 47.378906 41.027344 47.378906 41.027344 C 47.378906 41.027344 47.34375 41.019531 47.28125 41 C 47.25 40.992188 47.210938 40.988281 47.167969 40.980469 C 47.125 40.96875 47.074219 40.96875 47.019531 40.960938 C 46.964844 40.957031 46.902344 40.953125 46.839844 40.960938 C 46.808594 40.960938 46.777344 40.964844 46.742188 40.96875 C 46.710938 40.972656 46.679688 40.976562 46.644531 40.984375 C 46.578125 41 46.507812 41.023438 46.441406 41.050781 C 46.375 41.078125 46.308594 41.113281 46.25 41.152344 C 46.1875 41.191406 46.128906 41.238281 46.074219 41.289062 C 46.023438 41.335938 45.972656 41.386719 45.929688 41.441406 C 45.839844 41.546875 45.773438 41.660156 45.722656 41.753906 C 45.640625 41.910156 45.597656 42.03125 45.585938 42.074219 C 45.425781 42.015625 45.269531 41.957031 45.109375 41.90625 C 44.546875 41.730469 43.996094 41.621094 43.492188 41.558594 C 43.496094 41.550781 43.503906 41.539062 43.515625 41.519531 C 43.527344 41.503906 43.539062 41.480469 43.554688 41.457031 C 43.570312 41.429688 43.585938 41.402344 43.609375 41.371094 C 43.628906 41.34375 43.652344 41.3125 43.675781 41.277344 C 43.699219 41.242188 43.726562 41.210938 43.757812 41.175781 C 43.785156 41.140625 43.8125 41.101562 43.847656 41.070312 C 43.882812 41.035156 43.914062 41 43.949219 40.96875 C 43.988281 40.9375 44.019531 40.902344 44.0625 40.875 C 44.082031 40.863281 44.101562 40.847656 44.121094 40.835938 C 44.136719 40.820312 44.160156 40.8125 44.179688 40.800781 C 44.21875 40.773438 44.257812 40.757812 44.296875 40.742188 C 44.335938 40.730469 44.371094 40.714844 44.410156 40.707031 C 44.445312 40.699219 44.476562 40.699219 44.507812 40.695312 C 44.535156 40.695312 44.5625 40.695312 44.582031 40.699219 C 44.625 40.703125 44.648438 40.710938 44.648438 40.710938 C 44.648438 40.710938 44.625 40.703125 44.585938 40.695312 C 44.5625 40.691406 44.535156 40.691406 44.507812 40.691406 C 44.476562 40.695312 44.445312 40.695312 44.40625 40.703125 C 44.371094 40.707031 44.332031 40.722656 44.292969 40.734375 C 44.253906 40.75 44.210938 40.765625 44.171875 40.789062 C 44.152344 40.800781 44.132812 40.8125 44.113281 40.824219 C 44.09375 40.835938 44.074219 40.851562 44.054688 40.863281 C 44.011719 40.890625 43.976562 40.921875 43.9375 40.953125 C 43.898438 40.984375 43.867188 41.019531 43.832031 41.054688 C 43.796875 41.085938 43.769531 41.125 43.738281 41.160156 C 43.707031 41.191406 43.679688 41.226562 43.652344 41.261719 C 43.628906 41.292969 43.605469 41.324219 43.582031 41.355469 C 43.5625 41.382812 43.542969 41.414062 43.527344 41.4375 C 43.511719 41.460938 43.496094 41.484375 43.484375 41.503906 C 43.464844 41.53125 43.453125 41.546875 43.449219 41.554688 C 43.304688 41.539062 43.160156 41.523438 43.023438 41.511719 C 42.714844 41.488281 42.429688 41.480469 42.175781 41.484375 C 41.925781 41.484375 41.703125 41.496094 41.523438 41.507812 C 41.160156 41.535156 40.957031 41.574219 40.957031 41.574219 C 40.957031 41.574219 41.164062 41.539062 41.523438 41.519531 C 41.703125 41.511719 41.925781 41.503906 42.175781 41.507812 C 42.429688 41.511719 42.710938 41.523438 43.019531 41.550781 C 43.585938 41.601562 44.230469 41.707031 44.898438 41.90625 C 44.898438 41.910156 44.894531 41.914062 44.894531 41.917969 C 44.886719 41.941406 44.878906 41.984375 44.867188 42.035156 C 44.859375 42.085938 44.84375 42.144531 44.839844 42.21875 C 44.835938 42.253906 44.832031 42.289062 44.828125 42.332031 C 44.828125 42.371094 44.828125 42.414062 44.824219 42.457031 C 44.820312 42.5 44.828125 42.546875 44.828125 42.59375 C 44.832031 42.640625 44.828125 42.691406 44.835938 42.742188 C 44.84375 42.792969 44.847656 42.84375 44.855469 42.894531 C 44.863281 42.949219 44.875 43 44.886719 43.054688 C 44.902344 43.164062 44.941406 43.269531 44.972656 43.382812 C 44.988281 43.4375 45.015625 43.488281 45.035156 43.542969 C 45.058594 43.597656 45.078125 43.652344 45.105469 43.707031 C 45.132812 43.757812 45.160156 43.808594 45.1875 43.863281 C 45.214844 43.914062 45.238281 43.964844 45.273438 44.011719 C 45.304688 44.0625 45.335938 44.109375 45.367188 44.15625 C 45.398438 44.203125 45.425781 44.253906 45.460938 44.292969 C 45.53125 44.378906 45.597656 44.464844 45.660156 44.542969 C 45.730469 44.613281 45.796875 44.683594 45.855469 44.746094 C 45.886719 44.777344 45.917969 44.808594 45.945312 44.835938 C 45.972656 44.867188 46.003906 44.890625 46.03125 44.914062 C 46.082031 44.960938 46.132812 45 46.167969 45.035156 C 46.246094 45.101562 46.292969 45.140625 46.292969 45.140625 C 46.292969 45.140625 46.246094 45.101562 46.171875 45.035156 C 46.132812 45 46.085938 44.957031 46.03125 44.910156 C 46.003906 44.886719 45.976562 44.863281 45.949219 44.835938 C 45.921875 44.804688 45.890625 44.773438 45.859375 44.742188 C 45.800781 44.679688 45.734375 44.609375 45.667969 44.535156 C 45.605469 44.457031 45.539062 44.375 45.472656 44.289062 C 45.433594 44.246094 45.410156 44.195312 45.378906 44.148438 C 45.347656 44.101562 45.316406 44.054688 45.285156 44.007812 C 45.25 43.957031 45.230469 43.90625 45.203125 43.855469 C 45.175781 43.800781 45.148438 43.75 45.121094 43.699219 C 45.097656 43.644531 45.078125 43.589844 45.054688 43.535156 C 45.035156 43.484375 45.011719 43.429688 44.996094 43.375 C 44.964844 43.265625 44.925781 43.15625 44.910156 43.050781 C 44.902344 42.996094 44.886719 42.945312 44.882812 42.890625 C 44.875 42.839844 44.871094 42.789062 44.863281 42.738281 C 44.859375 42.6875 44.859375 42.640625 44.855469 42.59375 C 44.855469 42.546875 44.851562 42.5 44.855469 42.457031 C 44.859375 42.414062 44.859375 42.371094 44.863281 42.332031 C 44.863281 42.292969 44.871094 42.257812 44.871094 42.222656 C 44.878906 42.148438 44.894531 42.089844 44.902344 42.039062 C 44.914062 41.992188 44.921875 41.953125 44.929688 41.925781 C 44.929688 41.921875 44.933594 41.921875 44.933594 41.917969 C 44.984375 41.933594 45.039062 41.949219 45.089844 41.964844 C 45.640625 42.144531 46.203125 42.386719 46.726562 42.707031 C 46.742188 42.78125 46.777344 42.960938 46.839844 43.207031 C 46.859375 43.285156 46.882812 43.371094 46.90625 43.460938 C 46.933594 43.550781 46.957031 43.648438 46.988281 43.746094 C 47.019531 43.84375 47.050781 43.945312 47.085938 44.046875 C 47.117188 44.148438 47.15625 44.253906 47.195312 44.355469 C 47.234375 44.457031 47.277344 44.558594 47.320312 44.65625 C 47.359375 44.757812 47.410156 44.851562 47.453125 44.945312 C 47.5 45.035156 47.550781 45.121094 47.597656 45.203125 C 47.644531 45.285156 47.695312 45.359375 47.738281 45.425781 C 47.785156 45.496094 47.835938 45.550781 47.875 45.605469 C 47.914062 45.660156 47.957031 45.699219 47.992188 45.734375 C 48.023438 45.769531 48.050781 45.796875 48.070312 45.816406 C 48.070312 45.816406 48.070312 45.816406 48.074219 45.820312 C 48.070312 45.816406 48.070312 45.816406 48.070312 45.8125 C 48.050781 45.796875 48.023438 45.769531 47.992188 45.734375 C 47.960938 45.699219 47.917969 45.660156 47.878906 45.605469 C 47.839844 45.550781 47.789062 45.492188 47.742188 45.425781 C 47.699219 45.355469 47.648438 45.28125 47.601562 45.203125 C 47.558594 45.117188 47.507812 45.03125 47.460938 44.941406 C 47.417969 44.847656 47.371094 44.753906 47.328125 44.652344 C 47.289062 44.554688 47.242188 44.453125 47.207031 44.351562 C 47.167969 44.25 47.132812 44.144531 47.097656 44.042969 C 47.0625 43.941406 47.035156 43.839844 47.003906 43.742188 C 46.972656 43.644531 46.949219 43.546875 46.925781 43.457031 C 46.902344 43.363281 46.882812 43.277344 46.863281 43.199219 C 46.816406 42.984375 46.785156 42.820312 46.769531 42.730469 C 46.929688 42.832031 47.089844 42.9375 47.242188 43.050781 C 47.574219 43.289062 47.871094 43.578125 48.199219 43.820312 C 48.367188 43.945312 48.53125 44.066406 48.703125 44.179688 C 48.703125 44.179688 48.742188 44.328125 48.824219 44.535156 C 48.84375 44.589844 48.867188 44.644531 48.890625 44.703125 C 48.917969 44.765625 48.945312 44.824219 48.976562 44.890625 C 49.007812 44.953125 49.039062 45.019531 49.074219 45.082031 C 49.109375 45.148438 49.140625 45.214844 49.183594 45.28125 C 49.21875 45.34375 49.257812 45.410156 49.300781 45.46875 C 49.339844 45.53125 49.378906 45.59375 49.421875 45.648438 C 49.445312 45.675781 49.464844 45.707031 49.484375 45.734375 C 49.503906 45.757812 49.527344 45.785156 49.546875 45.808594 C 49.589844 45.859375 49.625 45.90625 49.664062 45.949219 C 49.703125 45.988281 49.738281 46.027344 49.769531 46.0625 C 49.804688 46.09375 49.832031 46.121094 49.855469 46.140625 C 49.90625 46.1875 49.933594 46.210938 49.933594 46.210938 C 49.933594 46.210938 49.90625 46.1875 49.859375 46.140625 C 49.835938 46.117188 49.804688 46.089844 49.773438 46.058594 C 49.742188 46.023438 49.707031 45.984375 49.667969 45.945312 C 49.632812 45.902344 49.59375 45.855469 49.554688 45.804688 C 49.535156 45.777344 49.511719 45.753906 49.492188 45.726562 C 49.472656 45.699219 49.453125 45.671875 49.433594 45.640625 C 49.390625 45.585938 49.351562 45.523438 49.3125 45.460938 C 49.273438 45.402344 49.234375 45.335938 49.199219 45.269531 C 49.160156 45.207031 49.128906 45.136719 49.09375 45.074219 C 49.058594 45.007812 49.027344 44.941406 49 44.878906 C 48.96875 44.816406 48.941406 44.753906 48.917969 44.691406 C 48.894531 44.632812 48.871094 44.578125 48.851562 44.523438 C 48.796875 44.378906 48.765625 44.265625 48.746094 44.210938 C 48.894531 44.308594 49.042969 44.402344 49.195312 44.488281 C 49.527344 44.6875 49.867188 44.855469 50.195312 44.992188 C 50.210938 45 50.222656 45.003906 50.238281 45.011719 L 50.222656 45.015625 C 50.222656 45.015625 50.242188 45.046875 50.269531 45.09375 C 50.277344 45.109375 50.285156 45.121094 50.296875 45.136719 C 50.304688 45.148438 50.316406 45.164062 50.328125 45.183594 C 50.351562 45.214844 50.378906 45.253906 50.410156 45.289062 C 50.441406 45.324219 50.476562 45.367188 50.515625 45.410156 C 50.554688 45.449219 50.59375 45.492188 50.636719 45.535156 C 50.726562 45.621094 50.820312 45.710938 50.921875 45.796875 C 51.320312 46.136719 51.757812 46.425781 51.757812 46.425781 C 51.757812 46.425781 51.324219 46.128906 50.933594 45.78125 C 50.835938 45.695312 50.742188 45.605469 50.65625 45.519531 C 50.613281 45.476562 50.574219 45.429688 50.535156 45.390625 C 50.496094 45.347656 50.464844 45.304688 50.433594 45.269531 C 50.402344 45.234375 50.378906 45.195312 50.355469 45.164062 C 50.34375 45.148438 50.335938 45.132812 50.324219 45.117188 C 50.316406 45.101562 50.308594 45.089844 50.300781 45.078125 C 50.289062 45.054688 50.277344 45.035156 50.269531 45.023438 C 50.574219 45.144531 50.867188 45.246094 51.144531 45.320312 C 51.445312 45.402344 51.726562 45.460938 51.976562 45.492188 C 52.226562 45.527344 52.445312 45.539062 52.628906 45.542969 C 52.992188 45.550781 53.195312 45.515625 53.195312 45.515625 C 53.195312 45.515625 52.992188 45.546875 52.628906 45.53125 Z M 30.378906 38.726562 C 30.375 38.726562 30.371094 38.726562 30.367188 38.726562 C 30.371094 38.726562 30.375 38.726562 30.378906 38.726562 Z M 30.347656 38.710938 L 30.347656 38.75 C 30.347656 38.75 30.351562 38.738281 30.355469 38.730469 C 30.359375 38.726562 30.363281 38.726562 30.367188 38.726562 C 30.363281 38.726562 30.359375 38.726562 30.355469 38.726562 C 30.351562 38.722656 30.347656 38.707031 30.347656 38.710938 Z M 38.351562 40.15625 C 38.628906 40.4375 38.777344 40.609375 38.777344 40.609375 C 38.777344 40.609375 38.625 40.441406 38.339844 40.164062 C 38.199219 40.027344 38.023438 39.859375 37.816406 39.679688 C 37.609375 39.496094 37.367188 39.300781 37.101562 39.089844 C 36.644531 38.738281 36.101562 38.363281 35.488281 38.019531 C 35.484375 38.023438 35.484375 38.023438 35.484375 38.027344 C 35.476562 38.039062 35.460938 38.054688 35.445312 38.078125 C 35.429688 38.097656 35.410156 38.125 35.386719 38.152344 C 35.359375 38.179688 35.332031 38.207031 35.300781 38.242188 C 35.234375 38.304688 35.152344 38.375 35.0625 38.441406 C 35.015625 38.472656 34.96875 38.507812 34.921875 38.539062 C 34.867188 38.570312 34.820312 38.605469 34.765625 38.632812 C 34.710938 38.660156 34.660156 38.691406 34.605469 38.714844 C 34.554688 38.738281 34.503906 38.765625 34.449219 38.789062 C 34.398438 38.808594 34.347656 38.828125 34.300781 38.847656 C 34.25 38.867188 34.207031 38.882812 34.164062 38.898438 C 34.078125 38.929688 34.003906 38.945312 33.957031 38.960938 C 33.90625 38.976562 33.875 38.984375 33.875 38.984375 C 33.875 38.984375 33.90625 38.976562 33.953125 38.960938 C 34.003906 38.941406 34.078125 38.921875 34.160156 38.886719 C 34.199219 38.871094 34.246094 38.855469 34.292969 38.835938 C 34.339844 38.8125 34.390625 38.792969 34.441406 38.769531 C 34.492188 38.746094 34.542969 38.714844 34.59375 38.691406 C 34.648438 38.664062 34.695312 38.632812 34.75 38.601562 C 34.800781 38.574219 34.847656 38.539062 34.898438 38.507812 C 34.945312 38.472656 34.992188 38.4375 35.035156 38.40625 C 35.121094 38.335938 35.199219 38.265625 35.257812 38.203125 C 35.289062 38.167969 35.316406 38.140625 35.335938 38.113281 C 35.359375 38.085938 35.378906 38.058594 35.394531 38.039062 C 35.410156 38.019531 35.421875 38 35.425781 37.992188 C 35.425781 37.988281 35.425781 37.988281 35.429688 37.988281 C 35.335938 37.9375 35.246094 37.890625 35.152344 37.839844 C 34.535156 37.527344 33.847656 37.253906 33.125 37.097656 C 33.074219 37.152344 32.953125 37.277344 32.78125 37.4375 C 32.550781 37.648438 32.234375 37.917969 31.886719 38.152344 C 31.800781 38.207031 31.714844 38.265625 31.625 38.316406 C 31.535156 38.367188 31.445312 38.414062 31.359375 38.457031 C 31.269531 38.5 31.183594 38.539062 31.101562 38.570312 C 31.058594 38.585938 31.019531 38.601562 30.976562 38.617188 C 30.9375 38.628906 30.898438 38.640625 30.863281 38.652344 C 30.785156 38.671875 30.714844 38.6875 30.652344 38.699219 C 30.589844 38.710938 30.535156 38.714844 30.492188 38.722656 C 30.445312 38.726562 30.410156 38.726562 30.382812 38.726562 C 30.382812 38.726562 30.378906 38.726562 30.378906 38.726562 C 30.378906 38.726562 30.382812 38.726562 30.382812 38.726562 C 30.410156 38.726562 30.445312 38.726562 30.488281 38.71875 C 30.535156 38.714844 30.589844 38.710938 30.652344 38.695312 C 30.714844 38.6875 30.785156 38.667969 30.859375 38.648438 C 30.898438 38.636719 30.9375 38.625 30.976562 38.609375 C 31.015625 38.597656 31.058594 38.582031 31.097656 38.566406 C 31.183594 38.53125 31.269531 38.496094 31.355469 38.449219 C 31.441406 38.40625 31.53125 38.359375 31.617188 38.304688 C 31.707031 38.253906 31.792969 38.199219 31.878906 38.140625 C 32.050781 38.023438 32.21875 37.894531 32.367188 37.773438 C 32.515625 37.648438 32.652344 37.523438 32.761719 37.414062 C 32.914062 37.269531 33.027344 37.148438 33.082031 37.085938 C 32.933594 37.058594 32.789062 37.03125 32.640625 37.011719 C 32.195312 36.9375 31.738281 36.957031 31.289062 36.910156 C 31.074219 36.890625 30.859375 36.863281 30.648438 36.828125 C 30.640625 36.832031 30.535156 36.925781 30.359375 37.039062 C 30.316406 37.070312 30.265625 37.101562 30.214844 37.132812 C 30.160156 37.164062 30.101562 37.195312 30.046875 37.226562 C 29.984375 37.257812 29.921875 37.289062 29.859375 37.320312 C 29.792969 37.347656 29.730469 37.378906 29.664062 37.40625 C 29.597656 37.429688 29.53125 37.457031 29.460938 37.476562 C 29.429688 37.488281 29.394531 37.496094 29.363281 37.507812 C 29.328125 37.515625 29.296875 37.527344 29.261719 37.535156 C 29.230469 37.542969 29.199219 37.550781 29.167969 37.558594 C 29.136719 37.5625 29.105469 37.570312 29.074219 37.574219 C 29.011719 37.585938 28.957031 37.597656 28.902344 37.601562 C 28.847656 37.605469 28.800781 37.609375 28.757812 37.617188 C 28.714844 37.617188 28.675781 37.617188 28.644531 37.617188 C 28.582031 37.621094 28.546875 37.621094 28.546875 37.621094 C 28.546875 37.621094 28.582031 37.617188 28.644531 37.617188 C 28.675781 37.617188 28.710938 37.613281 28.757812 37.613281 C 28.800781 37.605469 28.847656 37.601562 28.902344 37.59375 C 28.957031 37.589844 29.011719 37.578125 29.070312 37.566406 C 29.101562 37.558594 29.132812 37.554688 29.164062 37.546875 C 29.195312 37.539062 29.226562 37.53125 29.261719 37.523438 C 29.292969 37.511719 29.324219 37.503906 29.359375 37.496094 C 29.390625 37.484375 29.421875 37.472656 29.457031 37.460938 C 29.523438 37.441406 29.589844 37.414062 29.65625 37.386719 C 29.722656 37.359375 29.785156 37.328125 29.847656 37.300781 C 29.914062 37.269531 29.972656 37.234375 30.03125 37.203125 C 30.089844 37.171875 30.144531 37.140625 30.199219 37.105469 C 30.25 37.074219 30.296875 37.042969 30.339844 37.011719 C 30.46875 36.925781 30.558594 36.855469 30.597656 36.820312 C 30.390625 36.785156 30.1875 36.742188 29.988281 36.695312 C 29.597656 36.601562 29.226562 36.484375 28.878906 36.347656 L 28.886719 36.363281 C 28.886719 36.363281 28.855469 36.375 28.800781 36.394531 C 28.777344 36.410156 28.742188 36.417969 28.703125 36.425781 C 28.664062 36.4375 28.621094 36.449219 28.574219 36.453125 C 28.523438 36.464844 28.472656 36.472656 28.417969 36.476562 C 28.359375 36.480469 28.300781 36.488281 28.242188 36.488281 C 28.179688 36.492188 28.117188 36.496094 28.054688 36.492188 C 27.988281 36.496094 27.925781 36.492188 27.859375 36.492188 C 27.34375 36.472656 26.832031 36.382812 26.832031 36.382812 C 26.832031 36.382812 27.34375 36.464844 27.859375 36.472656 C 27.925781 36.472656 27.988281 36.472656 28.054688 36.472656 C 28.117188 36.46875 28.179688 36.46875 28.238281 36.464844 C 28.300781 36.460938 28.359375 36.453125 28.414062 36.445312 C 28.46875 36.441406 28.519531 36.429688 28.566406 36.421875 C 28.613281 36.414062 28.65625 36.402344 28.695312 36.390625 C 28.730469 36.382812 28.761719 36.371094 28.789062 36.359375 C 28.8125 36.351562 28.832031 36.34375 28.847656 36.335938 C 28.835938 36.332031 28.824219 36.328125 28.816406 36.324219 C 28.453125 36.179688 28.117188 36.019531 27.816406 35.855469 C 27.21875 35.527344 26.765625 35.179688 26.46875 34.917969 C 26.167969 34.65625 26.019531 34.484375 26.019531 34.484375 C 26.019531 34.484375 26.171875 34.652344 26.476562 34.90625 C 26.78125 35.160156 27.242188 35.492188 27.839844 35.816406 C 27.910156 35.851562 27.984375 35.890625 28.0625 35.929688 C 28.058594 35.914062 28.054688 35.898438 28.050781 35.878906 C 28.042969 35.851562 28.035156 35.816406 28.019531 35.777344 C 28.007812 35.738281 27.992188 35.691406 27.972656 35.644531 C 27.953125 35.597656 27.929688 35.546875 27.902344 35.496094 C 27.875 35.441406 27.847656 35.386719 27.8125 35.332031 C 27.777344 35.277344 27.746094 35.21875 27.707031 35.164062 C 27.667969 35.109375 27.628906 35.050781 27.589844 34.996094 C 27.507812 34.882812 27.417969 34.777344 27.335938 34.679688 C 27.25 34.578125 27.167969 34.492188 27.097656 34.414062 C 26.953125 34.265625 26.851562 34.171875 26.851562 34.171875 C 26.851562 34.171875 26.957031 34.261719 27.101562 34.410156 C 27.175781 34.484375 27.257812 34.574219 27.34375 34.671875 C 27.429688 34.765625 27.519531 34.871094 27.605469 34.984375 C 27.648438 35.039062 27.6875 35.09375 27.726562 35.152344 C 27.765625 35.207031 27.800781 35.265625 27.835938 35.316406 C 27.871094 35.375 27.902344 35.429688 27.929688 35.480469 C 27.957031 35.535156 27.980469 35.585938 28.003906 35.632812 C 28.027344 35.679688 28.039062 35.726562 28.054688 35.765625 C 28.070312 35.804688 28.078125 35.839844 28.085938 35.871094 C 28.097656 35.910156 28.101562 35.933594 28.105469 35.949219 C 28.652344 36.21875 29.296875 36.460938 30.007812 36.628906 C 30.058594 36.640625 30.117188 36.652344 30.171875 36.664062 C 30.167969 36.625 30.152344 36.519531 30.117188 36.378906 C 30.105469 36.332031 30.09375 36.285156 30.078125 36.234375 C 30.0625 36.183594 30.042969 36.128906 30.023438 36.074219 C 30.003906 36.019531 29.984375 35.960938 29.957031 35.90625 C 29.929688 35.851562 29.90625 35.792969 29.875 35.738281 L 29.832031 35.65625 C 29.816406 35.628906 29.800781 35.605469 29.785156 35.578125 C 29.753906 35.523438 29.71875 35.476562 29.683594 35.429688 C 29.652344 35.378906 29.617188 35.335938 29.582031 35.292969 C 29.566406 35.273438 29.546875 35.253906 29.53125 35.234375 C 29.515625 35.214844 29.496094 35.199219 29.480469 35.179688 C 29.449219 35.148438 29.421875 35.117188 29.390625 35.089844 C 29.363281 35.066406 29.339844 35.042969 29.316406 35.023438 C 29.277344 34.988281 29.253906 34.96875 29.253906 34.96875 C 29.253906 34.96875 29.277344 34.988281 29.320312 35.023438 C 29.339844 35.042969 29.367188 35.0625 29.394531 35.085938 C 29.421875 35.113281 29.453125 35.144531 29.488281 35.175781 C 29.503906 35.195312 29.519531 35.210938 29.539062 35.230469 C 29.554688 35.25 29.570312 35.269531 29.589844 35.289062 C 29.625 35.328125 29.660156 35.371094 29.695312 35.421875 C 29.730469 35.46875 29.765625 35.515625 29.796875 35.570312 C 29.816406 35.597656 29.832031 35.621094 29.847656 35.648438 L 29.894531 35.730469 C 29.925781 35.785156 29.953125 35.839844 29.976562 35.898438 C 30.003906 35.953125 30.027344 36.011719 30.050781 36.0625 C 30.070312 36.121094 30.089844 36.171875 30.105469 36.222656 C 30.121094 36.273438 30.136719 36.324219 30.148438 36.371094 C 30.191406 36.53125 30.207031 36.648438 30.210938 36.671875 C 30.5625 36.746094 30.925781 36.800781 31.296875 36.835938 C 31.40625 36.84375 31.519531 36.855469 31.632812 36.859375 C 31.710938 36.863281 31.792969 36.867188 31.875 36.871094 C 31.875 36.867188 31.878906 36.867188 31.878906 36.863281 C 31.882812 36.851562 31.886719 36.828125 31.894531 36.804688 C 31.902344 36.777344 31.910156 36.742188 31.914062 36.703125 C 31.917969 36.667969 31.917969 36.625 31.921875 36.574219 C 31.917969 36.527344 31.921875 36.476562 31.914062 36.421875 C 31.90625 36.367188 31.894531 36.3125 31.882812 36.253906 C 31.867188 36.195312 31.847656 36.136719 31.824219 36.078125 C 31.800781 36.023438 31.777344 35.960938 31.746094 35.90625 C 31.714844 35.851562 31.683594 35.792969 31.648438 35.742188 C 31.613281 35.691406 31.578125 35.636719 31.539062 35.589844 C 31.5 35.546875 31.464844 35.5 31.429688 35.457031 C 31.390625 35.417969 31.351562 35.382812 31.320312 35.347656 C 31.289062 35.308594 31.253906 35.28125 31.222656 35.253906 C 31.195312 35.230469 31.167969 35.207031 31.148438 35.1875 C 31.105469 35.152344 31.082031 35.128906 31.082031 35.128906 C 31.082031 35.128906 31.105469 35.148438 31.148438 35.1875 C 31.171875 35.207031 31.195312 35.226562 31.226562 35.253906 C 31.257812 35.277344 31.289062 35.304688 31.324219 35.339844 C 31.359375 35.375 31.394531 35.414062 31.433594 35.453125 C 31.472656 35.492188 31.507812 35.539062 31.550781 35.582031 C 31.589844 35.628906 31.625 35.679688 31.660156 35.734375 C 31.699219 35.785156 31.730469 35.839844 31.761719 35.898438 C 31.796875 35.953125 31.820312 36.011719 31.847656 36.070312 C 31.871094 36.128906 31.890625 36.1875 31.90625 36.246094 C 31.921875 36.304688 31.9375 36.363281 31.941406 36.417969 C 31.953125 36.472656 31.953125 36.527344 31.957031 36.574219 C 31.953125 36.625 31.953125 36.667969 31.949219 36.710938 C 31.945312 36.75 31.9375 36.78125 31.933594 36.8125 C 31.925781 36.835938 31.921875 36.855469 31.917969 36.871094 C 31.933594 36.871094 31.953125 36.871094 31.96875 36.875 C 32.195312 36.882812 32.425781 36.902344 32.652344 36.933594 C 33.265625 37.023438 33.859375 37.199219 34.414062 37.425781 C 34.417969 37.40625 34.421875 37.378906 34.429688 37.335938 C 34.441406 37.265625 34.453125 37.160156 34.457031 37.03125 C 34.460938 36.90625 34.457031 36.757812 34.433594 36.601562 C 34.421875 36.523438 34.40625 36.445312 34.382812 36.363281 C 34.363281 36.28125 34.335938 36.203125 34.304688 36.125 C 34.269531 36.046875 34.234375 35.96875 34.191406 35.898438 C 34.152344 35.824219 34.105469 35.757812 34.054688 35.695312 C 34.03125 35.664062 34.007812 35.632812 33.980469 35.605469 C 33.957031 35.578125 33.929688 35.546875 33.90625 35.523438 C 33.855469 35.46875 33.800781 35.425781 33.753906 35.382812 C 33.703125 35.347656 33.65625 35.308594 33.613281 35.28125 C 33.566406 35.253906 33.53125 35.226562 33.5 35.207031 C 33.433594 35.171875 33.398438 35.152344 33.398438 35.152344 C 33.398438 35.152344 33.433594 35.171875 33.5 35.207031 C 33.53125 35.222656 33.570312 35.25 33.613281 35.277344 C 33.660156 35.304688 33.703125 35.34375 33.757812 35.378906 C 33.804688 35.421875 33.859375 35.464844 33.910156 35.515625 C 33.9375 35.539062 33.964844 35.570312 33.988281 35.597656 C 34.015625 35.625 34.039062 35.65625 34.066406 35.6875 C 34.117188 35.75 34.164062 35.816406 34.207031 35.890625 C 34.25 35.960938 34.289062 36.039062 34.320312 36.117188 C 34.355469 36.195312 34.382812 36.277344 34.40625 36.355469 C 34.429688 36.4375 34.445312 36.519531 34.460938 36.597656 C 34.484375 36.753906 34.492188 36.90625 34.492188 37.035156 C 34.488281 37.242188 34.460938 37.394531 34.449219 37.441406 C 34.703125 37.546875 34.949219 37.660156 35.179688 37.78125 C 35.671875 38.039062 36.117188 38.320312 36.515625 38.601562 C 36.523438 38.558594 36.535156 38.492188 36.546875 38.410156 C 36.554688 38.339844 36.566406 38.253906 36.570312 38.164062 C 36.574219 38.074219 36.574219 37.976562 36.570312 37.878906 C 36.566406 37.832031 36.5625 37.78125 36.558594 37.734375 C 36.550781 37.6875 36.546875 37.640625 36.539062 37.59375 C 36.527344 37.550781 36.523438 37.507812 36.507812 37.464844 C 36.496094 37.425781 36.488281 37.386719 36.476562 37.351562 C 36.460938 37.320312 36.449219 37.289062 36.4375 37.257812 C 36.429688 37.230469 36.414062 37.210938 36.40625 37.191406 C 36.386719 37.152344 36.375 37.128906 36.375 37.128906 C 36.375 37.128906 36.386719 37.152344 36.410156 37.1875 C 36.417969 37.207031 36.433594 37.230469 36.445312 37.257812 C 36.457031 37.285156 36.46875 37.316406 36.484375 37.347656 C 36.5 37.382812 36.511719 37.421875 36.523438 37.460938 C 36.539062 37.5 36.546875 37.546875 36.558594 37.589844 C 36.570312 37.636719 36.574219 37.683594 36.585938 37.730469 C 36.59375 37.777344 36.597656 37.828125 36.605469 37.875 C 36.613281 37.972656 36.617188 38.074219 36.613281 38.164062 C 36.613281 38.257812 36.609375 38.34375 36.601562 38.417969 C 36.59375 38.527344 36.582031 38.605469 36.574219 38.644531 C 36.769531 38.78125 36.957031 38.921875 37.125 39.058594 C 37.394531 39.269531 37.628906 39.472656 37.832031 39.660156 C 38.039062 39.847656 38.210938 40.015625 38.351562 40.15625 " fill-opacity="1" fill-rule="nonzero"/><g fill="#ffffff" fill-opacity="1"><g transform="translate(49.816056, 41.747495)"><g><path d="M 9.5625 -4.453125 L 6.765625 -4.453125 L 6.765625 -1.5625 L 3.5 -1.5625 L 3.5 -4.453125 L 0.671875 -4.453125 L 0.671875 -7.515625 L 3.5 -7.515625 L 3.5 -10.421875 L 6.765625 -10.421875 L 6.765625 -7.515625 L 9.5625 -7.515625 Z M 9.5625 -4.453125 "/></g></g></g></svg>